<svg xmlns="http://www.w3.org/2000/svg" xmlns:xlink="http://www.w3.org/1999/xlink" viewBox="0 0 1000 1000" width="1000" height="1000" preserveAspectRatio="xMidYMid meet" style="width: 100%; height: 100%; transform: translate3d(0px, 0px, 0px); content-visibility: visible;" version="1.1" transform="matrix(1,0,0,-1,0,0)"><defs><clipPath id="__lottie_element_30"><rect width="1000" height="1000" x="0" y="0"></rect></clipPath><g id="__lottie_element_32"><g transform="matrix(0.5600000023841858,0,0,0.5600000023841858,-522.8927612304688,-44.48309326171875)" opacity="0.99" style="display: block;"><g opacity="1" transform="matrix(5.671279430389404,1.766406774520874,-1.766406774520874,5.671279430389404,1801.1390380859375,934.1640014648438)"><path fill="rgb(44,115,227)" fill-opacity="1" d=" M78.73500061035156,-34.70800018310547 C78.73500061035156,-34.70800018310547 80.6780014038086,-28.718000411987305 80.6780014038086,-28.718000411987305 C80.6780014038086,-28.718000411987305 -58.9640007019043,72.31900024414062 -58.9640007019043,72.31900024414062 C-58.9640007019043,72.31900024414062 -68.91600036621094,40.15399932861328 -68.91600036621094,40.15399932861328 C-68.91600036621094,40.15399932861328 36.053001403808594,-53.59000015258789 58.00600051879883,-46.11399841308594 C67.30500030517578,-42.946998596191406 73.80799865722656,-40.66600036621094 74.43499755859375,-40.27299880981445 C76.41300201416016,-39.034000396728516 77.97699737548828,-37.111000061035156 78.73500061035156,-34.70800018310547z"></path></g></g></g><filter id="__lottie_element_38" filterUnits="objectBoundingBox" x="0%" y="0%" width="100%" height="100%"><feComponentTransfer in="SourceGraphic"><feFuncA type="table" tableValues="1.0 0.0"></feFuncA></feComponentTransfer></filter><mask id="__lottie_element_32_2" mask-type="alpha"><g filter="url(#__lottie_element_38)"><rect width="1000" height="1000" x="0" y="0" fill="#ffffff" opacity="0"></rect><use xlink:href="#__lottie_element_32"></use></g></mask></defs><g clip-path="url(#__lottie_element_30)"><g transform="matrix(1,0,0,1,512,530)" opacity="0.36" style="display: block;"><g opacity="1" transform="matrix(1,0,0,1,-3,249)"><path fill="rgb(11,19,45)" fill-opacity="0.2" d=" M0,-33 C249.73475646972656,-33 452.5,-18.21269989013672 452.5,0 C452.5,18.21269989013672 249.73475646972656,33 0,33 C-249.73475646972656,33 -452.5,18.21269989013672 -452.5,0 C-452.5,-18.21269989013672 -249.73475646972656,-33 0,-33z"></path></g></g><g transform="matrix(0.5600000023841858,0,0,0.5600000023841858,-144,27.719970703125)" opacity="0.85" style="display: block;"><g opacity="1" transform="matrix(0.9602886438369751,-1.0864372253417969,1.0864372253417969,0.9602886438369751,1640.7183837890625,615.5542602539062)"><path fill="rgb(29,153,172)" fill-opacity="1" d=" M-97.41999816894531,26.0049991607666 C-97.41999816894531,26.0049991607666 6.349999904632568,-26.0049991607666 53.119998931884766,-26.0049991607666 C61.27000045776367,-26.0049991607666 67.69000244140625,-24.424999237060547 71.52999877929688,-20.725000381469727 C97.41999816894531,4.255000114440918 -97.41999816894531,26.0049991607666 -97.41999816894531,26.0049991607666z M46.7599983215332,70.93499755859375 C-6.739999771118164,70.93499755859375 -120.69000244140625,34.595001220703125 -120.69000244140625,34.595001220703125 C-120.69000244140625,34.595001220703125 -80.62999725341797,31.075000762939453 -36.86000061035156,31.075000762939453 C15.079999923706055,31.075000762939453 72.2300033569336,36.025001525878906 73.86000061035156,57.69499969482422 C74.58999633789062,67.29499816894531 63.70000076293945,70.93499755859375 46.7599983215332,70.93499755859375z"></path></g><g opacity="1" transform="matrix(0.9791640639305115,0.20307064056396484,-0.20307064056396484,0.9791640639305115,956.7385864257812,506.9070129394531)"><path fill="rgb(93,232,221)" fill-opacity="1" d=" M-258.3800048828125,-174.03799438476562 C-233.9600067138672,-249.36900329589844 -106.30000305175781,-219.18299865722656 -106.30000305175781,-219.18299865722656 C-106.30000305175781,-219.18299865722656 -25.378999710083008,-81.28099822998047 -0.07900000363588333,-76.8499984741211 C25.211000442504883,-72.41899871826172 -46.23899841308594,-208.26199340820312 -46.23899841308594,-208.26199340820312 C3.3010001182556152,-210.61199951171875 125.9800033569336,-144 125.9800033569336,-144 C125.9800033569336,-144 110.37000274658203,11.482999801635742 135.97999572753906,9.550999641418457 C161.5800018310547,7.619999885559082 142.77099609375,-128.8260040283203 142.77099609375,-128.8260040283203 C189.79100036621094,-112.16799926757812 231.58999633789062,-54.3120002746582 231.58999633789062,-54.3120002746582 C282.80999755859375,39.08399963378906 160.2310028076172,100.02799987792969 160.2310028076172,100.02799987792969 C160.2310028076172,100.02799987792969 155.99099731445312,154.0279998779297 186.34100341796875,217.6999969482422 C186.34100341796875,217.6999969482422 186.34100341796875,217.70199584960938 186.34100341796875,217.70199584960938 C186.34100341796875,217.70199584960938 193.3209991455078,229.52499389648438 200.031005859375,249.36900329589844 C200.031005859375,249.36900329589844 187.02099609375,248.72999572753906 187.02099609375,248.72999572753906 C186.13099670410156,245.18899536132812 185.1199951171875,241.75999450683594 183.97999572753906,238.45899963378906 C183.97999572753906,238.45899963378906 183.9600067138672,238.3990020751953 183.9600067138672,238.3990020751953 C183.9600067138672,238.3990020751953 183.91000366210938,238.25599670410156 183.91000366210938,238.25599670410156 C183.1199951171875,236.20199584960938 181.9810028076172,233.2790069580078 180.55099487304688,229.71600341796875 C180.55099487304688,229.71600341796875 180.55099487304688,229.7030029296875 180.55099487304688,229.7030029296875 C180.55099487304688,229.7030029296875 180.5399932861328,229.68600463867188 180.5399932861328,229.68600463867188 C176.9499969482422,221.7100067138672 174.55099487304688,215.83099365234375 173.05099487304688,211.59800720214844 C173.05099487304688,211.59800720214844 173.0399932861328,211.5590057373047 173.0399932861328,211.5590057373047 C162.3300018310547,186.55099487304688 146.74000549316406,153.88800048828125 135.6199951171875,146.6510009765625 C135.6199951171875,146.6510009765625 137.16099548339844,144.69700622558594 138.7010040283203,140.8209991455078 C137.7209930419922,142.67999267578125 136.6999969482422,144.61900329589844 135.6199951171875,146.6510009765625 C111.01000213623047,193.2740020751953 -0.7200000286102295,195.75900268554688 -62.119998931884766,179.98800659179688 C-123.52999877929688,164.2169952392578 -95.62899780273438,148.0489959716797 -60.82899856567383,121.29299926757812 C-26.038999557495117,94.53800201416016 43.58000183105469,105.45999908447266 64.80000305175781,95.34100341796875 C86.02999877929688,85.2229995727539 56.349998474121094,72.6050033569336 14.84000015258789,73.75499725341797 C-26.670000076293945,74.90499877929688 -49.380001068115234,115.24400329589844 -116.48999786376953,118.32599639892578 C-183.61000061035156,121.40699768066406 -228.3300018310547,-6.745999813079834 -228.3300018310547,-6.745999813079834 C-182.91000366210938,9.833999633789062 -98.9489974975586,-11.552000045776367 -94.98899841308594,-27.302000045776367 C-91.02899932861328,-43.05099868774414 -213.57899475097656,-47.474998474121094 -232.4290008544922,-53.183998107910156 C-251.2790069580078,-58.893001556396484 -282.8110046386719,-98.70700073242188 -258.3800048828125,-174.03799438476562z"></path></g><g opacity="1" transform="matrix(-0.997729480266571,0.06734880805015564,0.06734880805015564,0.997729480266571,612.3262939453125,706.21923828125)"><path fill="rgb(41,179,188)" fill-opacity="1" d=" M155.7550048828125,-95.15499877929688 C143.59500122070312,-140.05499267578125 67.82499694824219,-126.0250015258789 67.82499694824219,-126.0250015258789 C67.82499694824219,-126.0250015258789 16.375,-47.44499969482422 1.4049999713897705,-45.57500076293945 C-13.5649995803833,-43.70500183105469 32.275001525878906,-121.3550033569336 32.275001525878906,-121.3550033569336 C3.2750000953674316,-124.15499877929688 -70.625,-88.6050033569336 -70.625,-88.6050033569336 C-70.625,-88.6050033569336 -65.95500183105469,3.065000057220459 -80.91500091552734,1.1950000524520874 C-95.88500213623047,-0.675000011920929 -80.91500091552734,-80.18499755859375 -80.91500091552734,-80.18499755859375 C-108.98500061035156,-71.7750015258789 -135.1750030517578,-39.025001525878906 -135.1750030517578,-39.025001525878906 C-167.9149932861328,14.295000076293945 -97.75499725341797,53.584999084472656 -97.75499725341797,53.584999084472656 C-97.75499725341797,53.584999084472656 -96.82499694824219,85.38500213623047 -116.46499633789062,121.875 C-116.46499633789062,121.875 -116.46499633789062,121.875 -116.46499633789062,121.875 C-116.46499633789062,121.875 -120.90499877929688,128.60499572753906 -125.40499877929688,140.05499267578125 C-125.40499877929688,140.05499267578125 -117.75499725341797,140.05499267578125 -117.75499725341797,140.05499267578125 C-117.13500213623047,138.0050048828125 -116.44499969482422,136.02499389648438 -115.68499755859375,134.125 C-115.68499755859375,134.125 -115.66500091552734,134.0850067138672 -115.66500091552734,134.0850067138672 C-115.66500091552734,134.0850067138672 -115.63500213623047,134.0050048828125 -115.63500213623047,134.0050048828125 C-115.1050033569336,132.8249969482422 -114.3550033569336,131.13499450683594 -113.41500091552734,129.09500122070312 C-113.41500091552734,129.09500122070312 -113.41500091552734,129.0850067138672 -113.41500091552734,129.0850067138672 C-113.41500091552734,129.0850067138672 -113.40499877929688,129.0749969482422 -113.40499877929688,129.0749969482422 C-111.06500244140625,124.49500274658203 -109.49500274658203,121.11499786376953 -108.49500274658203,118.67500305175781 C-108.49500274658203,118.67500305175781 -108.48500061035156,118.65499877929688 -108.48500061035156,118.65499877929688 C-101.4749984741211,104.28500366210938 -91.3949966430664,85.57499694824219 -84.66500091552734,81.6449966430664 C-84.66500091552734,81.6449966430664 -85.50499725341797,80.45500183105469 -86.29499816894531,78.13500213623047 C-85.7750015258789,79.25499725341797 -85.23500061035156,80.42500305175781 -84.66500091552734,81.6449966430664 C-71.56500244140625,109.71499633789062 -6.085000038146973,114.38500213623047 30.405000686645508,106.90499877929688 C66.88500213623047,99.42500305175781 50.98500061035156,89.13500213623047 31.334999084472656,72.43499755859375 C11.694999694824219,55.724998474121094 -29.46500015258789,60.1349983215332 -41.625,53.584999084472656 C-53.78499984741211,47.03499984741211 -36.01499938964844,40.48500061035156 -11.694999694824219,42.35499954223633 C12.625,44.224998474121094 24.795000076293945,68.55500030517578 64.07499694824219,72.29499816894531 C103.375,76.03500366210938 133.30499267578125,2.134999990463257 133.30499267578125,2.134999990463257 C106.17500305175781,10.555000305175781 57.53499984741211,-4.414999961853027 55.665000915527344,-13.774999618530273 C53.78499984741211,-23.125 125.82499694824219,-22.19499969482422 137.0449981689453,-24.9950008392334 C148.27499389648438,-27.80500030517578 167.9149932861328,-50.255001068115234 155.7550048828125,-95.15499877929688z"></path></g><g opacity="1" transform="matrix(-0.9184260368347168,-0.3955928087234497,-0.3955928087234497,0.9184260368347168,1788.39599609375,1019.7830810546875)"><path fill="rgb(22,91,130)" fill-opacity="1" d=" M-167.55499267578125,-155.11500549316406 C-140.61500549316406,-206.1649932861328 -52.70500183105469,-168.55499267578125 -52.70500183105469,-168.55499267578125 C-52.70500183105469,-168.55499267578125 -11.795000076293945,-59.415000915527344 5.815000057220459,-53.084999084472656 C23.424999237060547,-46.744998931884766 -10.9350004196167,-153.21499633789062 -10.9350004196167,-153.21499633789062 C24.934999465942383,-148.72500610351562 104.7249984741211,-85.57499694824219 104.7249984741211,-85.57499694824219 C104.7249984741211,-85.57499694824219 74.11499786376953,24.145000457763672 92.74500274658203,25.94499969482422 C111.375,27.7549991607666 114.8949966430664,-72.57499694824219 114.8949966430664,-72.57499694824219 C146.5749969482422,-54.744998931884766 169.375,-7.985000133514404 169.375,-7.985000133514404 C194.5050048828125,65.48500061035156 98.875,93.95500183105469 98.875,93.95500183105469 C98.875,93.95500183105469 89.08499908447266,132.2050018310547 102.93499755859375,181.71499633789062 C102.93499755859375,181.71499633789062 102.93499755859375,181.71499633789062 102.93499755859375,181.71499633789062 C102.93499755859375,181.71499633789062 106.4749984741211,191.0749969482422 108.81500244140625,206.1649932861328 C108.81500244140625,206.1649932861328 99.55500030517578,204.0850067138672 99.55500030517578,204.0850067138672 C99.3550033569336,201.43499755859375 99.05500030517578,198.84500122070312 98.65499877929688,196.3350067138672 C98.65499877929688,196.3350067138672 98.6449966430664,196.28500366210938 98.6449966430664,196.28500366210938 C98.6449966430664,196.28500366210938 98.625,196.1750030517578 98.625,196.1750030517578 C98.31500244140625,194.60499572753906 97.8550033569336,192.36500549316406 97.28500366210938,189.625 C97.28500366210938,189.625 97.2750015258789,189.61500549316406 97.2750015258789,189.61500549316406 C97.2750015258789,189.61500549316406 97.2750015258789,189.60499572753906 97.2750015258789,189.60499572753906 C95.69499969482422,183.4250030517578 94.69499969482422,178.90499877929688 94.15499877929688,175.6750030517578 C94.15499877929688,175.6750030517578 94.15499877929688,175.64500427246094 94.15499877929688,175.64500427246094 C89.58499908447266,156.35499572753906 82.45500183105469,130.94500732421875 75.375,124.36499786376953 C75.375,124.36499786376953 76.7249984741211,123.15499877929688 78.31500244140625,120.56500244140625 C77.38500213623047,121.7750015258789 76.40499877929688,123.03500366210938 75.375,124.36499786376953 C51.8849983215332,154.77499389648438 -28.665000915527344,142.61500549316406 -70.79499816894531,123.625 C-112.92500305175781,104.63500213623047 -90.875,96.50499725341797 -62.54499816894531,81.63500213623047 C-34.21500015258789,66.76499938964844 14.414999961853027,83.29499816894531 30.924999237060547,78.67500305175781 C47.42499923706055,74.05500030517578 27.69499969482422,61.29499816894531 -2.265000104904175,56.94499969482422 C-32.21500015258789,52.584999084472656 -53.564998626708984,78.7249984741211 -102.1449966430664,72.55500030517578 C-150.72500610351562,66.3949966430664 -166.85499572753906,-31.21500015258789 -166.85499572753906,-31.21500015258789 C-136.30499267578125,-13.645000457763672 -73.33499908447266,-18.524999618530273 -68.5250015258789,-29.344999313354492 C-63.71500015258789,-40.154998779296875 -151.1750030517578,-58.625 -164.0050048828125,-65.08499908447266 C-176.8249969482422,-71.53500366210938 -194.5050048828125,-104.05500030517578 -167.55499267578125,-155.11500549316406z"></path></g><g opacity="1" transform="matrix(-0.9997747540473938,0.021223418414592743,0.021223418414592743,0.9997747540473938,830.2015380859375,621.0366821289062)"><path fill="rgb(22,91,130)" fill-opacity="1" d=" M-72.08499908447266,102.30400085449219 C-72.08499908447266,102.30400085449219 -35.42499923706055,-29.24799919128418 45.57500076293945,-98.63999938964844 C48.53499984741211,-101.18099975585938 51.935001373291016,-102.30400085449219 55.255001068115234,-102.30400085449219 C63.95500183105469,-102.30400085449219 72.08499908447266,-94.55400085449219 70.30500030517578,-84.44200134277344 C70.26499938964844,-84.20899963378906 70.2249984741211,-83.9739990234375 70.17500305175781,-83.73600006103516 C65.6050033569336,-59.96699905395508 -26.825000762939453,29.02400016784668 -72.08499908447266,102.30400085449219z M-86.34500122070312,139.38499450683594 C-86.34500122070312,139.38499450683594 7.90500020980835,-17.577999114990234 136.2050018310547,-73.64299774169922 C138.3350067138672,-74.5739974975586 140.5850067138672,-75.01899719238281 142.80499267578125,-75.01899719238281 C148.73500061035156,-75.01899719238281 154.44500732421875,-71.83999633789062 157.13499450683594,-66.24400329589844 C159.55499267578125,-61.23400115966797 159.86500549316406,-53.94300079345703 154.6649932861328,-43.43299865722656 C140.80499267578125,-15.404999732971191 -4.835000038146973,63.67399978637695 -86.34500122070312,139.38499450683594z"></path></g><g opacity="1" transform="matrix(-0.8415162563323975,1.0683867931365967,1.0683867931365967,0.8415162563323975,1332.16162109375,607.7669677734375)"><path fill="rgb(93,232,221)" fill-opacity="1" d=" M-126.88999938964844,19.834999084472656 C-141.13999938964844,-11.055000305175781 -92.05999755859375,-38.73500061035156 -92.05999755859375,-38.73500061035156 C-92.05999755859375,-38.73500061035156 -26.34000015258789,-18.80500030517578 -17.06999969482422,-24.78499984741211 C-7.800000190734863,-30.7549991607666 -69.93000030517578,-52.79499816894531 -69.93000030517578,-52.79499816894531 C-54.9900016784668,-67.9749984741211 3.140000104904175,-82.70500183105469 3.140000104904175,-82.70500183105469 C3.140000104904175,-82.70500183105469 43.529998779296875,-29.104999542236328 51.040000915527344,-37.17499923706055 C58.560001373291016,-45.244998931884766 12.859999656677246,-82.81500244140625 12.859999656677246,-82.81500244140625 C32.54999923706055,-91.25499725341797 62.599998474121094,-85.18499755859375 62.599998474121094,-85.18499755859375 C105.9800033569336,-70.6449966430664 85.05999755859375,-15.694999694824219 85.05999755859375,-15.694999694824219 C85.05999755859375,-15.694999694824219 99.45999908447266,2.5850000381469727 127.58999633789062,13.824999809265137 C127.58999633789062,13.824999809265137 127.5999984741211,13.824999809265137 127.5999984741211,13.824999809265137 C127.5999984741211,13.824999809265137 133.24000549316406,15.524999618530273 141.13999938964844,19.825000762939453 C141.13999938964844,19.825000762939453 136.85000610351562,23.415000915527344 136.85000610351562,23.415000915527344 C135.5399932861328,22.55500030517578 134.22000122070312,21.774999618530273 132.89999389648438,21.065000534057617 C132.89999389648438,21.065000534057617 132.8800048828125,21.045000076293945 132.8800048828125,21.045000076293945 C132.8800048828125,21.045000076293945 132.82000732421875,21.014999389648438 132.82000732421875,21.014999389648438 C131.97000122070312,20.604999542236328 130.75999450683594,20.014999389648438 129.27000427246094,19.30500030517578 C129.27000427246094,19.30500030517578 129.25999450683594,19.295000076293945 129.25999450683594,19.295000076293945 C125.80000305175781,17.825000762939453 123.33000183105469,16.674999237060547 121.62000274658203,15.774999618530273 C121.62000274658203,15.774999618530273 121.61000061035156,15.765000343322754 121.61000061035156,15.765000343322754 C110.94000244140625,10.994999885559082 96.5,5.235000133514404 90.88999938964844,6.184999942779541 C90.88999938964844,6.184999942779541 90.80000305175781,5.125 90.16000366210938,3.4549999237060547 C90.38999938964844,4.324999809265137 90.62999725341797,5.235000133514404 90.88999938964844,6.184999942779541 C96.70999908447266,28.075000762939453 62.18000030517578,61.415000915527344 38.209999084472656,74.33499908447266 C14.239999771118164,87.25499725341797 18.329999923706055,74.0250015258789 21.510000228881836,55.44499969482422 C24.690000534057617,36.85499954223633 49.84000015258789,20.014999389648438 53.59000015258789,10.635000228881836 C57.33000183105469,1.2649999856948853 44.290000915527344,5.925000190734863 31.530000686645508,18.385000228881836 C18.770000457763672,30.844999313354492 23.360000610351562,50.19499969482422 3.0799999237060547,70.7249984741211 C-17.190000534057617,91.25499725341797 -68.66000366210938,63.85499954223633 -68.66000366210938,63.85499954223633 C-49.4900016784668,55.85499954223633 -29.229999542236328,24.635000228881836 -32.56999969482422,18.514999389648438 C-35.90999984741211,12.385000228881836 -75.87000274658203,46.70500183105469 -83.4800033569336,50.39500045776367 C-91.08999633789062,54.095001220703125 -112.63999938964844,50.71500015258789 -126.88999938964844,19.834999084472656z"></path></g></g><g transform="matrix(0.5600000023841858,0,0,0.5600000023841858,-144,-148.280029296875)" opacity="1" style="display: block;"><g opacity="1" transform="matrix(0.6381744146347046,-0.2040427178144455,0.2040427178144455,0.6381744146347046,1713.1197509765625,1241.4666748046875)"><path fill="rgb(29,153,172)" fill-opacity="1" d=" M275.614990234375,-280.81500244140625 C135.71499633789062,5.465000152587891 -255.73500061035156,290.135009765625 -255.73500061035156,290.135009765625 C-255.73500061035156,290.135009765625 73.44499969482422,226.36500549316406 214.51499938964844,-6.554999828338623 C214.51499938964844,-6.554999828338623 149.2550048828125,-49.44499969482422 149.2550048828125,-49.44499969482422 C149.2550048828125,-49.44499969482422 197.26499938964844,-50.10499954223633 237.5749969482422,-49.92499923706055 C267.4949951171875,-114.79499816894531 283.07501220703125,-191.1750030517578 275.614990234375,-280.81500244140625z M-156.9550018310547,-120.91500091552734 C-129.88499450683594,-112.07499694824219 -89.7750015258789,-98.4749984741211 -89.7750015258789,-98.4749984741211 C-89.7750015258789,-98.4749984741211 -132.36500549316406,-147.19500732421875 -132.36500549316406,-147.19500732421875 C-93.25499725341797,-185.23500061035156 -48.6150016784668,-212.64500427246094 -3.555000066757202,-232.34500122070312 C18.415000915527344,-206.89500427246094 44.064998626708984,-178.56500244140625 44.064998626708984,-178.56500244140625 C44.064998626708984,-178.56500244140625 40.69499969482422,-249.3350067138672 40.69499969482422,-249.3350067138672 C162.80499267578125,-290.135009765625 275.614990234375,-280.81500244140625 275.614990234375,-280.81500244140625 C135.71499633789062,5.465000152587891 -255.73500061035156,290.135009765625 -255.73500061035156,290.135009765625 C-275.614990234375,93.38500213623047 -229.35499572753906,-35.96500015258789 -156.9550018310547,-120.91500091552734z"></path><path fill="rgb(41,179,188)" fill-opacity="1" d=" M-156.9550018310547,-120.91500091552734 C-129.88499450683594,-112.07499694824219 -89.7750015258789,-98.4749984741211 -89.7750015258789,-98.4749984741211 C-89.7750015258789,-98.4749984741211 -132.36500549316406,-147.19500732421875 -132.36500549316406,-147.19500732421875 C-93.25499725341797,-185.23500061035156 -48.6150016784668,-212.64500427246094 -3.555000066757202,-232.34500122070312 C18.415000915527344,-206.89500427246094 44.064998626708984,-178.56500244140625 44.064998626708984,-178.56500244140625 C44.064998626708984,-178.56500244140625 40.69499969482422,-249.3350067138672 40.69499969482422,-249.3350067138672 C162.80499267578125,-290.135009765625 275.614990234375,-280.81500244140625 275.614990234375,-280.81500244140625 C135.71499633789062,5.465000152587891 -255.73500061035156,290.135009765625 -255.73500061035156,290.135009765625 C-275.614990234375,93.38500213623047 -229.35499572753906,-35.96500015258789 -156.9550018310547,-120.91500091552734z"></path></g><g opacity="1" transform="matrix(0.9998486042022705,0.01739993877708912,-0.01739993877708912,0.9998486042022705,1706.899169921875,1536.7103271484375)"><path fill="rgb(22,91,130)" fill-opacity="1" d=" M206.55999755859375,28.825000762939453 C223.88800048828125,-6.21999979019165 151.2989959716797,-38.98500061035156 151.2989959716797,-38.98500061035156 C151.2989959716797,-38.98500061035156 102.62799835205078,-29.187999725341797 88.84700012207031,-36.229000091552734 C75.06600189208984,-43.27000045776367 118.427001953125,-55.555999755859375 118.427001953125,-55.555999755859375 C95.6729965209961,-73.26000213623047 11.4399995803833,-91.41000366210938 11.4399995803833,-91.41000366210938 C11.4399995803833,-91.41000366210938 -15.810999870300293,-51.702999114990234 -27.295000076293945,-61.106998443603516 C-38.77899932861328,-70.51100158691406 -2.4159998893737793,-91.74199676513672 -2.4159998893737793,-91.74199676513672 C-31.27899932861328,-101.84100341796875 -73.51200103759766,-95.5510025024414 -73.51200103759766,-95.5510025024414 C-133.91099548339844,-79.8550033569336 -98.83599853515625,-16.496000289916992 -98.83599853515625,-16.496000289916992 C-98.83599853515625,-16.496000289916992 -117.58799743652344,4.109000205993652 -156.5850067138672,16.36400032043457 C-156.5850067138672,16.36400032043457 -156.5850067138672,16.36400032043457 -156.5850067138672,16.36400032043457 C-156.5850067138672,16.36400032043457 -164.4669952392578,18.183000564575195 -175.31199645996094,22.937999725341797 C-175.31199645996094,22.937999725341797 -168.8509979248047,27.142000198364258 -168.8509979248047,27.142000198364258 C-167.06100463867188,26.190000534057617 -165.2689971923828,25.312000274658203 -163.45599365234375,24.527999877929688 C-163.45599365234375,24.527999877929688 -163.41900634765625,24.516000747680664 -163.41900634765625,24.516000747680664 C-163.41900634765625,24.516000747680664 -163.33900451660156,24.48200035095215 -163.33900451660156,24.48200035095215 C-162.16900634765625,24.024999618530273 -160.49600219726562,23.378000259399414 -158.44500732421875,22.597999572753906 C-158.44500732421875,22.597999572753906 -158.44200134277344,22.593000411987305 -158.44200134277344,22.593000411987305 C-158.44200134277344,22.593000411987305 -158.427001953125,22.591999053955078 -158.427001953125,22.591999053955078 C-153.6479949951172,20.982999801635742 -150.2310028076172,19.7189998626709 -147.88900756835938,18.725000381469727 C-147.88900756835938,18.725000381469727 -147.8679962158203,18.71500015258789 -147.8679962158203,18.71500015258789 C-133.13299560546875,13.48799991607666 -113.11699676513672,7.209000110626221 -105.01899719238281,8.428000450134277 C-105.01899719238281,8.428000450134277 -105.00299835205078,7.211999893188477 -104.25399780273438,5.309000015258789 C-104.50199890136719,6.302000045776367 -104.7490005493164,7.3420000076293945 -105.01899719238281,8.428000450134277 C-111.21499633789062,33.347999572753906 -58.814998626708984,72.2770004272461 -23.41900062561035,87.59300231933594 C11.97700023651123,102.90899658203125 4.883999824523926,87.66999816894531 -1.440000057220459,66.33200073242188 C-7.765999794006348,44.987998962402344 -24.283000946044922,44.11399841308594 -30.523000717163086,33.29199981689453 C-36.757999420166016,22.479000091552734 -26.856000900268555,21.69099998474121 -7.4720001220703125,36.23899841308594 C11.902999877929688,50.779998779296875 -4.5960001945495605,60.28099822998047 26.275999069213867,84.23100280761719 C57.14699935913086,108.18099975585938 127.8219985961914,77.94300079345703 127.8219985961914,77.94300079345703 C99.74500274658203,68.3550033569336 99.20800018310547,59.70600128173828 103.3759994506836,52.768001556396484 C107.54299926757812,45.83100128173828 136.45599365234375,58.47100067138672 147.656005859375,62.8650016784668 C158.8560028076172,67.25900268554688 189.23300170898438,63.86899948120117 206.55999755859375,28.825000762939453z"></path></g><g opacity="1" transform="matrix(0.7268941402435303,-0.3093944191932678,0.3093944191932678,0.7268941402435303,606.8019409179688,1586.3291015625)"><path fill="rgb(92,232,220)" fill-opacity="1" d=" M315.45098876953125,8.9399995803833 C315.45098876953125,8.9399995803833 185.8730010986328,-136.16000366210938 -55.948001861572266,-125.95999908447266 C-55.948001861572266,-125.95999908447266 -13.934000015258789,-68.12000274658203 -13.934000015258789,-68.12000274658203 C-13.934000015258789,-68.12000274658203 -81.58599853515625,-121.08999633789062 -81.58599853515625,-121.08999633789062 C-81.58599853515625,-121.08999633789062 -221.78799438476562,-109.2699966430664 -317.27801513671875,-74.91000366210938 C-317.27801513671875,-74.91000366210938 -111.79299926757812,32.970001220703125 -59.935001373291016,42.400001525878906 C-59.935001373291016,42.400001525878906 9.244999885559082,21.739999771118164 9.244999885559082,21.739999771118164 C9.244999885559082,21.739999771118164 -28.170000076293945,73.51000213623047 -28.170000076293945,73.51000213623047 C-28.170000076293945,73.51000213623047 84.89600372314453,136.16000366210938 201.08700561523438,123.1500015258789 C317.27801513671875,110.13999938964844 315.45098876953125,8.9399995803833 315.45098876953125,8.9399995803833z"></path></g><g opacity="1" transform="matrix(0.7823649644851685,0.10956775397062302,-0.10956775397062302,0.7823649644851685,612.148681640625,1290.896728515625)"><path fill="rgb(22,90,130)" fill-opacity="1" d=" M257.3240051269531,316.63800048828125 C91.66600036621094,332.8680114746094 -52.637001037597656,233.28799438476562 -50.066001892089844,198.83799743652344 C-47.49599838256836,164.3979949951172 29.54599952697754,181.3780059814453 26.461999893188477,137.8179931640625 C24.673999786376953,112.5780029296875 -16.56800079345703,121.72799682617188 -59.89500045776367,130.8780059814453 C-110.3280029296875,141.5279998779297 -163.58799743652344,152.17799377441406 -160.74899291992188,108.5979995727539 C-157.48399353027344,58.46799850463867 -93.79199981689453,86.41899871826172 -85.56199645996094,18.7189998626709 C-81.45800018310547,-15.050999641418457 -127.60099792480469,-10.802000045776367 -174.71800231933594,-6.552000045776367 C-222.08900451660156,-2.2820000648498535 -270.4429931640625,1.9880000352859497 -269.71099853515625,-32.36199951171875 C-268.2510070800781,-100.9020004272461 -150.4199981689453,-89.4020004272461 -213.4199981689453,-133.03199768066406 C-276.41900634765625,-176.66200256347656 -420.2049865722656,-240.61700439453125 -312.32000732421875,-300.2510070800781 C-253.31100463867188,-332.8689880371094 -194.9459991455078,-283.5849914550781 -150.48599243164062,-234.30099487304688 C-113.66100311279297,-193.48199462890625 -86.3740005493164,-152.66200256347656 -76.15799713134766,-158.3719940185547 C-53.60900115966797,-170.99200439453125 -53.823001861572266,-249.0229949951172 -7.8429999351501465,-234.9459991455078 C38.137001037597656,-220.8719940185547 53.577999114990234,-25.402000427246094 82.1780014038086,-44.551998138427734 C110.7760009765625,-63.71200180053711 121.60600280761719,-142.82200622558594 171.88699340820312,-107.61199951171875 C222.16799926757812,-72.4020004272461 165.0279998779297,11.998000144958496 174.94400024414062,60.077999114990234 C184.86000061035156,108.16799926757812 224.5030059814453,87.9280014038086 224.5030059814453,87.9280014038086 C277.343994140625,-17.601999282836914 298.2749938964844,6.368000030517578 298.2749938964844,6.368000030517578 C399.50201416015625,38.077999114990234 257.3240051269531,316.63800048828125 257.3240051269531,316.63800048828125z M255.76600646972656,316.76800537109375 C245.5709991455078,289.8479919433594 232.25,262.76800537109375 216.5279998779297,235.8179931640625 C197.23899841308594,242.21800231933594 176.1280059814453,244.79800415039062 154.58399963378906,244.79800415039062 C111.0510025024414,244.79800415039062 65.78399658203125,234.2480010986328 30.44300079345703,223.23800659179688 C-1.9989999532699585,213.13800048828125 -30.253999710083008,201.45799255371094 -48.81399917602539,193.13800048828125 C-48.44900131225586,192.18800354003906 -48.01599884033203,191.2779998779297 -47.51300048828125,190.42799377441406 C-29.03499984741211,198.70799255371094 -0.9110000133514404,210.33799743652344 31.384000778198242,220.38800048828125 C66.48899841308594,231.30799865722656 111.4280014038086,241.79800415039062 154.5590057373047,241.79800415039062 C175.57000732421875,241.79800415039062 196.15499877929688,239.30799865722656 214.95899963378906,233.16799926757812 C178.1009979248047,170.6479949951172 128.4499969482422,108.9280014038086 75.05500030517578,51.768001556396484 C3.4830000400543213,52.9379997253418 -107.2030029296875,95.65899658203125 -160.3780059814453,118.00900268554688 C-160.5399932861328,117.01899719238281 -160.66200256347656,115.97799682617188 -160.74000549316406,114.90799713134766 C-107.74099731445312,92.66799926757812 0.5569999814033508,50.99800109863281 72.29299926757812,48.81800079345703 C34.66400146484375,8.748000144958496 -4.723999977111816,-29.04199981689453 -42.73099899291992,-63.242000579833984 C-44.21799850463867,-63.29199981689453 -48.512001037597656,-63.4119987487793 -55.10200119018555,-63.4119987487793 C-70.89099884033203,-63.4119987487793 -99.86499786376953,-62.742000579833984 -135.02699279785156,-58.87200164794922 C-171.77999877929688,-54.832000732421875 -221.09300231933594,-46.5620002746582 -269.6579895019531,-29.70199966430664 C-269.7070007324219,-30.562000274658203 -269.7300109863281,-31.45199966430664 -269.71099853515625,-32.36199951171875 C-269.70599365234375,-32.53200149536133 -269.697998046875,-32.69200134277344 -269.6940002441406,-32.86199951171875 C-221.156005859375,-49.60200119018555 -171.99600219726562,-57.832000732421875 -135.302001953125,-61.86199951171875 C-100.03099822998047,-65.74199676513672 -70.9469985961914,-66.41200256347656 -55.07400131225586,-66.41200256347656 C-51.347999572753906,-66.41200256347656 -48.3489990234375,-66.38200378417969 -46.16999816894531,-66.33200073242188 C-63.34299850463867,-81.72200012207031 -80.21399688720703,-96.37200164794922 -96.48600006103516,-110.1520004272461 C-193.25100708007812,-192.0919952392578 -283.9840087890625,-256.5090026855469 -330.5570068359375,-288.33099365234375 C-329.7460021972656,-288.9729919433594 -328.9129943847656,-289.614990234375 -328.04901123046875,-290.2569885253906 C-281.1700134277344,-258.1969909667969 -190.83299255371094,-193.98199462890625 -94.54499816894531,-112.4520034790039 C-60.016998291015625,-83.21199798583984 -27.60099983215332,-54.20199966430664 2.575000047683716,-25.562000274658203 C-1.1410000324249268,-38.5620002746582 -10.571999549865723,-73.6520004272461 -16.736000061035156,-115.12200164794922 C-22.040000915527344,-150.81199645996094 -25.638999938964844,-196.73199462890625 -18.594999313354492,-236.6219940185547 C-18.475000381469727,-236.6230010986328 -18.35300064086914,-236.62399291992188 -18.23200035095215,-236.62399291992188 C-17.367000579833984,-236.62399291992188 -16.483999252319336,-236.58700561523438 -15.57699966430664,-236.5050048828125 C-22.64900016784668,-196.94200134277344 -19.049999237060547,-151.14199829101562 -13.762999534606934,-115.56199645996094 C-6.400000095367432,-66.03199768066406 5.633999824523926,-25.66200065612793 6.916999816894531,-21.43199920654297 C46.3849983215332,16.257999420166016 81.94400024414062,53.29800033569336 113.24500274658203,89.35800170898438 C113.37300109863281,89.49800109863281 113.49600219726562,89.64900207519531 113.6240005493164,89.79900360107422 C116.10700225830078,-9.640999794006348 141.93099975585938,-69.302001953125 163.29299926757812,-101.9219970703125 C165.093994140625,-104.6719970703125 166.88600158691406,-107.26100158691406 168.66700744628906,-109.73100280761719 C169.4969940185547,-109.21099853515625 170.33799743652344,-108.66200256347656 171.1909942626953,-108.08200073242188 C169.3560028076172,-105.552001953125 167.51100158691406,-102.88200378417969 165.66400146484375,-100.052001953125 C144.34300231933594,-67.41200256347656 118.51499938964844,-7.381999969482422 116.5510025024414,93.18800354003906 C146.88499450683594,128.4080047607422 173.16200256347656,162.72799682617188 195.2689971923828,195.97799682617188 C220.9770050048828,177.29800415039062 240.68499755859375,154.83799743652344 255.78599548339844,131.6479949951172 C255.78599548339844,131.6479949951172 257.5950012207031,134.58799743652344 257.5950012207031,134.58799743652344 C243.63299560546875,155.75799560546875 227.13299560546875,174.20799255371094 208.34300231933594,189.67799377441406 C204.6320037841797,192.73800659179688 200.82699584960938,195.66900634765625 196.93899536132812,198.49899291992188 C223.64999389648438,238.98899841308594 244.1479949951172,277.8680114746094 258.2349853515625,314.8280029296875 C257.6659851074219,315.9580078125 257.3529968261719,316.5780029296875 257.3269958496094,316.62799072265625 C257.3269958496094,316.62799072265625 257.3269958496094,316.62799072265625 257.3269958496094,316.62799072265625 C257.32598876953125,316.62799072265625 257.32598876953125,316.62799072265625 257.32598876953125,316.63800048828125 C257.32598876953125,316.63800048828125 257.32598876953125,316.63800048828125 257.32598876953125,316.63800048828125 C257.32598876953125,316.63800048828125 257.3240051269531,316.63800048828125 257.3240051269531,316.63800048828125 C257.3240051269531,316.63800048828125 257.3240051269531,316.63800048828125 257.3240051269531,316.63800048828125 C256.8030090332031,316.68798828125 256.2860107421875,316.7179870605469 255.76600646972656,316.76800537109375z"></path><path fill="rgb(9,72,109)" fill-opacity="1" d=" M255.76600646972656,316.76800537109375 C245.5709991455078,289.8479919433594 232.25,262.76800537109375 216.5279998779297,235.8179931640625 C197.23899841308594,242.21800231933594 176.1280059814453,244.79800415039062 154.58399963378906,244.79800415039062 C111.0510025024414,244.79800415039062 65.78399658203125,234.2480010986328 30.44300079345703,223.23800659179688 C-1.9989999532699585,213.13800048828125 -30.253999710083008,201.45799255371094 -48.81399917602539,193.13800048828125 C-48.44900131225586,192.18800354003906 -48.01599884033203,191.2779998779297 -47.51300048828125,190.42799377441406 C-29.03499984741211,198.70799255371094 -0.9110000133514404,210.33799743652344 31.384000778198242,220.38800048828125 C66.48899841308594,231.30799865722656 111.4280014038086,241.79800415039062 154.5590057373047,241.79800415039062 C175.57000732421875,241.79800415039062 196.15499877929688,239.30799865722656 214.95899963378906,233.16799926757812 C178.1009979248047,170.6479949951172 128.4499969482422,108.9280014038086 75.05500030517578,51.768001556396484 C3.4830000400543213,52.9379997253418 -107.2030029296875,95.65899658203125 -160.3780059814453,118.00900268554688 C-160.5399932861328,117.01899719238281 -160.66200256347656,115.97799682617188 -160.74000549316406,114.90799713134766 C-107.74099731445312,92.66799926757812 0.5569999814033508,50.99800109863281 72.29299926757812,48.81800079345703 C34.66400146484375,8.748000144958496 -4.723999977111816,-29.04199981689453 -42.73099899291992,-63.242000579833984 C-44.21799850463867,-63.29199981689453 -48.512001037597656,-63.4119987487793 -55.10200119018555,-63.4119987487793 C-70.89099884033203,-63.4119987487793 -99.86499786376953,-62.742000579833984 -135.02699279785156,-58.87200164794922 C-171.77999877929688,-54.832000732421875 -221.09300231933594,-46.5620002746582 -269.6579895019531,-29.70199966430664 C-269.7070007324219,-30.562000274658203 -269.7300109863281,-31.45199966430664 -269.71099853515625,-32.36199951171875 C-269.70599365234375,-32.53200149536133 -269.697998046875,-32.69200134277344 -269.6940002441406,-32.86199951171875 C-221.156005859375,-49.60200119018555 -171.99600219726562,-57.832000732421875 -135.302001953125,-61.86199951171875 C-100.03099822998047,-65.74199676513672 -70.9469985961914,-66.41200256347656 -55.07400131225586,-66.41200256347656 C-51.347999572753906,-66.41200256347656 -48.3489990234375,-66.38200378417969 -46.16999816894531,-66.33200073242188 C-63.34299850463867,-81.72200012207031 -80.21399688720703,-96.37200164794922 -96.48600006103516,-110.1520004272461 C-193.25100708007812,-192.0919952392578 -283.9840087890625,-256.5090026855469 -330.5570068359375,-288.33099365234375 C-329.7460021972656,-288.9729919433594 -328.9129943847656,-289.614990234375 -328.04901123046875,-290.2569885253906 C-281.1700134277344,-258.1969909667969 -190.83299255371094,-193.98199462890625 -94.54499816894531,-112.4520034790039 C-60.016998291015625,-83.21199798583984 -27.60099983215332,-54.20199966430664 2.575000047683716,-25.562000274658203 C-1.1410000324249268,-38.5620002746582 -10.571999549865723,-73.6520004272461 -16.736000061035156,-115.12200164794922 C-22.040000915527344,-150.81199645996094 -25.638999938964844,-196.73199462890625 -18.594999313354492,-236.6219940185547 C-18.475000381469727,-236.6230010986328 -18.35300064086914,-236.62399291992188 -18.23200035095215,-236.62399291992188 C-17.367000579833984,-236.62399291992188 -16.483999252319336,-236.58700561523438 -15.57699966430664,-236.5050048828125 C-22.64900016784668,-196.94200134277344 -19.049999237060547,-151.14199829101562 -13.762999534606934,-115.56199645996094 C-6.400000095367432,-66.03199768066406 5.633999824523926,-25.66200065612793 6.916999816894531,-21.43199920654297 C46.3849983215332,16.257999420166016 81.94400024414062,53.29800033569336 113.24500274658203,89.35800170898438 C113.37300109863281,89.49800109863281 113.49600219726562,89.64900207519531 113.6240005493164,89.79900360107422 C116.10700225830078,-9.640999794006348 141.93099975585938,-69.302001953125 163.29299926757812,-101.9219970703125 C165.093994140625,-104.6719970703125 166.88600158691406,-107.26100158691406 168.66700744628906,-109.73100280761719 C169.4969940185547,-109.21099853515625 170.33799743652344,-108.66200256347656 171.1909942626953,-108.08200073242188 C169.3560028076172,-105.552001953125 167.51100158691406,-102.88200378417969 165.66400146484375,-100.052001953125 C144.34300231933594,-67.41200256347656 118.51499938964844,-7.381999969482422 116.5510025024414,93.18800354003906 C146.88499450683594,128.4080047607422 173.16200256347656,162.72799682617188 195.2689971923828,195.97799682617188 C220.9770050048828,177.29800415039062 240.68499755859375,154.83799743652344 255.78599548339844,131.6479949951172 C255.78599548339844,131.6479949951172 257.5950012207031,134.58799743652344 257.5950012207031,134.58799743652344 C243.63299560546875,155.75799560546875 227.13299560546875,174.20799255371094 208.34300231933594,189.67799377441406 C204.6320037841797,192.73800659179688 200.82699584960938,195.66900634765625 196.93899536132812,198.49899291992188 C223.64999389648438,238.98899841308594 244.1479949951172,277.8680114746094 258.2349853515625,314.8280029296875 C257.6659851074219,315.9580078125 257.3529968261719,316.5780029296875 257.3269958496094,316.62799072265625 C257.3269958496094,316.62799072265625 257.3269958496094,316.62799072265625 257.3269958496094,316.62799072265625 C257.32598876953125,316.62799072265625 257.32598876953125,316.62799072265625 257.32598876953125,316.63800048828125 C257.32598876953125,316.63800048828125 257.32598876953125,316.63800048828125 257.32598876953125,316.63800048828125 C257.32598876953125,316.63800048828125 257.3240051269531,316.63800048828125 257.3240051269531,316.63800048828125 C257.3240051269531,316.63800048828125 257.3240051269531,316.63800048828125 257.3240051269531,316.63800048828125 C256.8030090332031,316.68798828125 256.2860107421875,316.7179870605469 255.76600646972656,316.76800537109375z"></path></g></g><g transform="matrix(0.5600000023841858,0,0,0.5600000023841858,-522.8927612304688,-44.48309326171875)" opacity="0.99" style="display: block;"><g opacity="1" transform="matrix(5.671279430389404,1.766406774520874,-1.766406774520874,5.671279430389404,1785.1390380859375,947.1640014648438)"><path fill="rgb(0,0,0)" fill-opacity="0.2" d=" M78.73500061035156,-34.70800018310547 C78.73500061035156,-34.70800018310547 103.17500305175781,43.82400131225586 103.17500305175781,43.82400131225586 C103.53500366210938,44.98099899291992 103.67500305175781,46.15999984741211 103.625,47.301998138427734 C103.44499969482422,51.4640007019043 100.68499755859375,55.25699996948242 96.48500061035156,56.564998626708984 C96.48500061035156,56.564998626708984 -39.904998779296875,99.01399993896484 -39.904998779296875,99.01399993896484 C-44.125,100.3290023803711 -48.564998626708984,98.73899841308594 -51.064998626708984,95.38700103759766 C-51.744998931884766,94.48400115966797 -52.275001525878906,93.4540023803711 -52.6349983215332,92.31800079345703 C-52.6349983215332,92.31800079345703 -77.06500244140625,13.819000244140625 -77.06500244140625,13.819000244140625 C-77.77200317382812,11.545999526977539 -77.41999816894531,9.932999610900879 -76.63200378417969,7.874000072479248 C-75.6989974975586,5.434999942779541 -21.424999237060547,-10.03600025177002 -6.934999942779541,-15.232000350952148 C-4.73799991607666,-16.020000457763672 -2.174999952316284,-16.81999969482422 0.09000000357627869,-17.42300033569336 C15.008999824523926,-21.39699935913086 72.32599639892578,-41.59400177001953 74.43499755859375,-40.27299880981445 C76.41300201416016,-39.034000396728516 77.97699737548828,-37.111000061035156 78.73500061035156,-34.70800018310547z M78.73500061035156,-34.70800018310547 C78.73500061035156,-34.70800018310547 103.17500305175781,43.82400131225586 103.17500305175781,43.82400131225586 C103.53500366210938,44.98099899291992 103.67500305175781,46.15999984741211 103.625,47.301998138427734 C103.44499969482422,51.4640007019043 100.68499755859375,55.25699996948242 96.48500061035156,56.564998626708984 C96.48500061035156,56.564998626708984 -39.904998779296875,99.01399993896484 -39.904998779296875,99.01399993896484 C-44.125,100.3290023803711 -48.564998626708984,98.73899841308594 -51.064998626708984,95.38700103759766 C-51.744998931884766,94.48400115966797 -52.275001525878906,93.4540023803711 -52.6349983215332,92.31800079345703 C-52.6349983215332,92.31800079345703 -77.06500244140625,13.819000244140625 -77.06500244140625,13.819000244140625 C-77.77200317382812,11.545999526977539 -77.41999816894531,9.932999610900879 -76.63200378417969,7.874000072479248 C-75.6989974975586,5.434999942779541 -21.424999237060547,-10.03600025177002 -6.934999942779541,-15.232000350952148 C-4.73799991607666,-16.020000457763672 -2.174999952316284,-16.81999969482422 0.09000000357627869,-17.42300033569336 C15.008999824523926,-21.39699935913086 72.32599639892578,-41.59400177001953 74.43499755859375,-40.27299880981445 C76.41300201416016,-39.034000396728516 77.97699737548828,-37.111000061035156 78.73500061035156,-34.70800018310547z"></path></g><g opacity="1" transform="matrix(5.671279430389404,1.766406774520874,-1.766406774520874,5.671279430389404,1801.1390380859375,934.1640014648438)"><path fill="rgb(44,115,227)" fill-opacity="1" d=" M78.73500061035156,-34.70800018310547 C78.73500061035156,-34.70800018310547 103.17500305175781,43.82400131225586 103.17500305175781,43.82400131225586 C103.53500366210938,44.98099899291992 103.67500305175781,46.15999984741211 103.625,47.301998138427734 C103.44499969482422,51.4640007019043 100.68499755859375,55.25699996948242 96.48500061035156,56.564998626708984 C96.48500061035156,56.564998626708984 -39.904998779296875,99.01399993896484 -39.904998779296875,99.01399993896484 C-44.125,100.3290023803711 -48.564998626708984,98.73899841308594 -51.064998626708984,95.38700103759766 C-51.744998931884766,94.48400115966797 -52.275001525878906,93.4540023803711 -52.6349983215332,92.31800079345703 C-52.6349983215332,92.31800079345703 -77.06500244140625,13.819000244140625 -77.06500244140625,13.819000244140625 C-77.77200317382812,11.545999526977539 -77.41999816894531,9.932999610900879 -76.63200378417969,7.874000072479248 C-75.6989974975586,5.434999942779541 -32.50899887084961,-52.69499969482422 -21.15399932861328,-67.95800018310547 C-19.433000564575195,-70.27200317382812 -16.871999740600586,-71.08200073242188 -14.137999534606934,-70.18000030517578 C3.869999885559082,-64.23500061035156 72.32599639892578,-41.59400177001953 74.43499755859375,-40.27299880981445 C76.41300201416016,-39.034000396728516 77.97699737548828,-37.111000061035156 78.73500061035156,-34.70800018310547z M78.73500061035156,-34.70800018310547 C78.73500061035156,-34.70800018310547 103.17500305175781,43.82400131225586 103.17500305175781,43.82400131225586 C103.53500366210938,44.98099899291992 103.67500305175781,46.15999984741211 103.625,47.301998138427734 C103.44499969482422,51.4640007019043 100.68499755859375,55.25699996948242 96.48500061035156,56.564998626708984 C96.48500061035156,56.564998626708984 -39.904998779296875,99.01399993896484 -39.904998779296875,99.01399993896484 C-44.125,100.3290023803711 -48.564998626708984,98.73899841308594 -51.064998626708984,95.38700103759766 C-51.744998931884766,94.48400115966797 -52.275001525878906,93.4540023803711 -52.6349983215332,92.31800079345703 C-52.6349983215332,92.31800079345703 -77.06500244140625,13.819000244140625 -77.06500244140625,13.819000244140625 C-77.77200317382812,11.545999526977539 -77.41999816894531,9.932999610900879 -76.63200378417969,7.874000072479248 C-75.6989974975586,5.434999942779541 -32.50899887084961,-52.69499969482422 -21.15399932861328,-67.95800018310547 C-19.433000564575195,-70.27200317382812 -16.871999740600586,-71.08200073242188 -14.137999534606934,-70.18000030517578 C3.869999885559082,-64.23500061035156 72.32599639892578,-41.59400177001953 74.43499755859375,-40.27299880981445 C76.41300201416016,-39.034000396728516 77.97699737548828,-37.111000061035156 78.73500061035156,-34.70800018310547z"></path></g><g opacity="1" transform="matrix(5.671279430389404,1.766406774520874,-1.766406774520874,5.671279430389404,1801.1390380859375,949.69970703125)"><g opacity="1" transform="matrix(1,0,0,1,-1792,-1153)"><path fill="rgb(236,242,251)" fill-opacity="1" d=" M1861.2080078125,1111.7490234375 C1861.2080078125,1111.7490234375 1886.1209716796875,1191.5579833984375 1886.1209716796875,1191.5579833984375 C1887.27294921875,1195.248046875 1885.2139892578125,1199.1729736328125 1881.5240478515625,1200.324951171875 C1881.5240478515625,1200.324951171875 1753.446044921875,1240.4090576171875 1753.446044921875,1240.4090576171875 C1749.7559814453125,1241.56103515625 1745.8299560546875,1239.5030517578125 1744.677978515625,1235.81298828125 C1744.677978515625,1235.81298828125 1719.7650146484375,1156.0050048828125 1719.7650146484375,1156.0050048828125 C1718.613037109375,1152.31494140625 1720.6719970703125,1148.3890380859375 1724.362060546875,1147.237060546875 C1724.362060546875,1147.237060546875 1852.4410400390625,1107.1529541015625 1852.4410400390625,1107.1529541015625 C1856.1309814453125,1106.0009765625 1860.0560302734375,1108.0589599609375 1861.2080078125,1111.7490234375z M1861.2080078125,1111.7490234375 C1861.2080078125,1111.7490234375 1886.1209716796875,1191.5579833984375 1886.1209716796875,1191.5579833984375 C1887.27294921875,1195.248046875 1885.2139892578125,1199.1729736328125 1881.5240478515625,1200.324951171875 C1881.5240478515625,1200.324951171875 1753.446044921875,1240.4090576171875 1753.446044921875,1240.4090576171875 C1749.7559814453125,1241.56103515625 1745.8299560546875,1239.5030517578125 1744.677978515625,1235.81298828125 C1744.677978515625,1235.81298828125 1719.7650146484375,1156.0050048828125 1719.7650146484375,1156.0050048828125 C1718.613037109375,1152.31494140625 1720.6719970703125,1148.3890380859375 1724.362060546875,1147.237060546875 C1724.362060546875,1147.237060546875 1852.4410400390625,1107.1529541015625 1852.4410400390625,1107.1529541015625 C1856.1309814453125,1106.0009765625 1860.0560302734375,1108.0589599609375 1861.2080078125,1111.7490234375z"></path></g><g opacity="1" transform="matrix(1,0,0,1,-1792,-1153)"><path stroke-linecap="round" stroke-linejoin="round" fill-opacity="0" stroke="rgb(191,206,226)" stroke-opacity="1" stroke-width="5" d=" M1746.43505859375,1170.5889892578125 C1746.43505859375,1170.5889892578125 1844.1240234375,1140.1510009765625 1844.1240234375,1140.1510009765625 M1746.43505859375,1170.5889892578125 C1746.43505859375,1170.5889892578125 1844.1240234375,1140.1510009765625 1844.1240234375,1140.1510009765625 M1741.751953125,1155.5560302734375 C1741.751953125,1155.5560302734375 1787.5150146484375,1141.3780517578125 1787.5150146484375,1141.3780517578125 M1741.751953125,1155.5560302734375 C1741.751953125,1155.5560302734375 1787.5150146484375,1141.3780517578125 1787.5150146484375,1141.3780517578125 M-774.5,1954.6 C-774.5,1954.6 -724.08,2043.64 -724.08,2043.64 M-774.5,1954.6 C-774.5,1954.6 -724.08,2043.64 -724.08,2043.64 M-760.8,1946.84 C-760.8,1946.84 -737.25,1988.57 -737.25,1988.57 M-760.8,1946.84 C-760.8,1946.84 -737.25,1988.57 -737.25,1988.57 M-774.5,1954.6 C-774.5,1954.6 -724.08,2043.64 -724.08,2043.64 M-774.5,1954.6 C-774.5,1954.6 -724.08,2043.64 -724.08,2043.64 M-760.8,1946.84 C-760.8,1946.84 -737.25,1988.57 -737.25,1988.57 M-760.8,1946.84 C-760.8,1946.84 -737.25,1988.57 -737.25,1988.57 M-774.5,1954.6 C-774.5,1954.6 -724.08,2043.64 -724.08,2043.64 M-774.5,1954.6 C-774.5,1954.6 -724.08,2043.64 -724.08,2043.64 M-760.8,1946.84 C-760.8,1946.84 -737.25,1988.57 -737.25,1988.57 M-760.8,1946.84 C-760.8,1946.84 -737.25,1988.57 -737.25,1988.57 M-774.5,1954.6 C-774.5,1954.6 -724.08,2043.64 -724.08,2043.64 M-774.5,1954.6 C-774.5,1954.6 -724.08,2043.64 -724.08,2043.64 M-760.8,1946.84 C-760.8,1946.84 -737.25,1988.57 -737.25,1988.57 M-760.8,1946.84 C-760.8,1946.84 -737.25,1988.57 -737.25,1988.57 M1761.44,1215.59 C1761.44,1215.59 1859.12,1185.15 1859.12,1185.15 M1756.75,1200.56 C1756.75,1200.56 1802.52,1186.38 1802.52,1186.38 M-759.5,1999.6 C-759.5,1999.6 -709.08,2088.64 -709.08,2088.64 M-745.8,1991.84 C-745.8,1991.84 -722.25,2033.57 -722.25,2033.57 M-759.5,1999.6 C-759.5,1999.6 -709.08,2088.64 -709.08,2088.64 M-745.8,1991.84 C-745.8,1991.84 -722.25,2033.57 -722.25,2033.57 M-759.5,1999.6 C-759.5,1999.6 -709.08,2088.64 -709.08,2088.64 M-745.8,1991.84 C-745.8,1991.84 -722.25,2033.57 -722.25,2033.57 M-759.5,1999.6 C-759.5,1999.6 -709.08,2088.64 -709.08,2088.64 M-745.8,1991.84 C-745.8,1991.84 -722.25,2033.57 -722.25,2033.57 M1756.44,1200.59 C1756.44,1200.59 1854.12,1170.15 1854.12,1170.15 M1751.75,1185.56 C1751.75,1185.56 1797.52,1171.38 1797.52,1171.38 M-764.5,1984.6 C-764.5,1984.6 -714.08,2073.64 -714.08,2073.64 M-750.8,1976.84 C-750.8,1976.84 -727.25,2018.57 -727.25,2018.57 M-764.5,1984.6 C-764.5,1984.6 -714.08,2073.64 -714.08,2073.64 M-750.8,1976.84 C-750.8,1976.84 -727.25,2018.57 -727.25,2018.57 M-764.5,1984.6 C-764.5,1984.6 -714.08,2073.64 -714.08,2073.64 M-750.8,1976.84 C-750.8,1976.84 -727.25,2018.57 -727.25,2018.57 M-764.5,1984.6 C-764.5,1984.6 -714.08,2073.64 -714.08,2073.64 M-750.8,1976.84 C-750.8,1976.84 -727.25,2018.57 -727.25,2018.57 M1751.44,1185.59 C1751.44,1185.59 1849.12,1155.15 1849.12,1155.15 M1746.75,1170.56 C1746.75,1170.56 1792.52,1156.38 1792.52,1156.38 M-769.5,1969.6 C-769.5,1969.6 -719.08,2058.64 -719.08,2058.64 M-755.8,1961.84 C-755.8,1961.84 -732.25,2003.57 -732.25,2003.57 M-769.5,1969.6 C-769.5,1969.6 -719.08,2058.64 -719.08,2058.64 M-755.8,1961.84 C-755.8,1961.84 -732.25,2003.57 -732.25,2003.57 M-769.5,1969.6 C-769.5,1969.6 -719.08,2058.64 -719.08,2058.64 M-755.8,1961.84 C-755.8,1961.84 -732.25,2003.57 -732.25,2003.57 M-769.5,1969.6 C-769.5,1969.6 -719.08,2058.64 -719.08,2058.64 M-755.8,1961.84 C-755.8,1961.84 -732.25,2003.57 -732.25,2003.57 M1746.43505859375,1170.5889892578125 C1746.43505859375,1170.5889892578125 1844.1240234375,1140.1510009765625 1844.1240234375,1140.1510009765625 M1741.751953125,1155.5560302734375 C1741.751953125,1155.5560302734375 1787.5150146484375,1141.3780517578125 1787.5150146484375,1141.3780517578125 M-774.5,1954.6 C-774.5,1954.6 -724.08,2043.64 -724.08,2043.64 M-760.8,1946.84 C-760.8,1946.84 -737.25,1988.57 -737.25,1988.57 M-774.5,1954.6 C-774.5,1954.6 -724.08,2043.64 -724.08,2043.64 M-760.8,1946.84 C-760.8,1946.84 -737.25,1988.57 -737.25,1988.57 M-774.5,1954.6 C-774.5,1954.6 -724.08,2043.64 -724.08,2043.64 M-760.8,1946.84 C-760.8,1946.84 -737.25,1988.57 -737.25,1988.57 M-774.5,1954.6 C-774.5,1954.6 -724.08,2043.64 -724.08,2043.64 M-760.8,1946.84 C-760.8,1946.84 -737.25,1988.57 -737.25,1988.57"></path><g opacity="1" transform="matrix(1,0,0,1,15,45)"><g opacity="1" transform="matrix(0.21161995828151703,0.9773520231246948,-0.9773520231246948,0.21161995828151703,0,0)"></g><g opacity="1" transform="matrix(0.21161995828151703,0.9773520231246948,-0.9773520231246948,0.21161995828151703,0,0)"></g><g opacity="1" transform="matrix(0.21161995828151703,0.9773520231246948,-0.9773520231246948,0.21161995828151703,0,0)"></g><g opacity="1" transform="matrix(0.21161995828151703,0.9773520231246948,-0.9773520231246948,0.21161995828151703,0,0)"></g></g><g opacity="1" transform="matrix(1,0,0,1,10,30)"><g opacity="1" transform="matrix(0.21161995828151703,0.9773520231246948,-0.9773520231246948,0.21161995828151703,0,0)"></g><g opacity="1" transform="matrix(0.21161995828151703,0.9773520231246948,-0.9773520231246948,0.21161995828151703,0,0)"></g><g opacity="1" transform="matrix(0.21161995828151703,0.9773520231246948,-0.9773520231246948,0.21161995828151703,0,0)"></g><g opacity="1" transform="matrix(0.21161995828151703,0.9773520231246948,-0.9773520231246948,0.21161995828151703,0,0)"></g></g><g opacity="1" transform="matrix(1,0,0,1,5,15)"><g opacity="1" transform="matrix(0.21161995828151703,0.9773520231246948,-0.9773520231246948,0.21161995828151703,0,0)"></g><g opacity="1" transform="matrix(0.21161995828151703,0.9773520231246948,-0.9773520231246948,0.21161995828151703,0,0)"></g><g opacity="1" transform="matrix(0.21161995828151703,0.9773520231246948,-0.9773520231246948,0.21161995828151703,0,0)"></g><g opacity="1" transform="matrix(0.21161995828151703,0.9773520231246948,-0.9773520231246948,0.21161995828151703,0,0)"></g></g><g opacity="1"><g opacity="1" transform="matrix(0.21161995828151703,0.9773520231246948,-0.9773520231246948,0.21161995828151703,0,0)"></g><g opacity="1" transform="matrix(0.21161995828151703,0.9773520231246948,-0.9773520231246948,0.21161995828151703,0,0)"></g><g opacity="1" transform="matrix(0.21161995828151703,0.9773520231246948,-0.9773520231246948,0.21161995828151703,0,0)"></g><g opacity="1" transform="matrix(0.21161995828151703,0.9773520231246948,-0.9773520231246948,0.21161995828151703,0,0)"></g></g></g></g><g opacity="1" transform="matrix(5.671279430389404,1.766406774520874,-1.766406774520874,5.671279430389404,1801.1390380859375,934.1640014648438)"><path fill="rgb(58,130,243)" fill-opacity="1" d=" M78.95800018310547,-33.9900016784668 C78.95800018310547,-33.9900016784668 103.17500305175781,43.82400131225586 103.17500305175781,43.82400131225586 C103.53500366210938,44.98099899291992 103.67500305175781,46.15999984741211 103.625,47.301998138427734 C103.44499969482422,51.4640007019043 100.68499755859375,55.25699996948242 96.48500061035156,56.564998626708984 C96.48500061035156,56.564998626708984 -39.904998779296875,99.01399993896484 -39.904998779296875,99.01399993896484 C-44.125,100.3290023803711 -48.564998626708984,98.73899841308594 -51.064998626708984,95.38700103759766 C-51.744998931884766,94.48400115966797 -52.275001525878906,93.4540023803711 -52.6349983215332,92.31800079345703 C-52.6349983215332,92.31800079345703 -76.84100341796875,14.536999702453613 -76.84100341796875,14.536999702453613 C-78.51100158691406,9.164999961853027 -74.7030029296875,6.060999870300293 -68.3290023803711,7.683000087738037 C-68.3290023803711,7.683000087738037 12.317000389099121,29.180999755859375 12.317000389099121,29.180999755859375 C12.317000389099121,29.180999755859375 68.06099700927734,-34.76599884033203 68.06099700927734,-34.76599884033203 C72.19999694824219,-39.37900161743164 77.26799774169922,-39.34400177001953 78.95800018310547,-33.9900016784668z M78.95800018310547,-33.9900016784668 C78.95800018310547,-33.9900016784668 103.17500305175781,43.82400131225586 103.17500305175781,43.82400131225586 C103.53500366210938,44.98099899291992 103.67500305175781,46.15999984741211 103.625,47.301998138427734 C103.44499969482422,51.4640007019043 100.68499755859375,55.25699996948242 96.48500061035156,56.564998626708984 C96.48500061035156,56.564998626708984 -39.904998779296875,99.01399993896484 -39.904998779296875,99.01399993896484 C-44.125,100.3290023803711 -48.564998626708984,98.73899841308594 -51.064998626708984,95.38700103759766 C-51.744998931884766,94.48400115966797 -52.275001525878906,93.4540023803711 -52.6349983215332,92.31800079345703 C-52.6349983215332,92.31800079345703 -76.84100341796875,14.536999702453613 -76.84100341796875,14.536999702453613 C-78.51100158691406,9.164999961853027 -74.7030029296875,6.060999870300293 -68.3290023803711,7.683000087738037 C-68.3290023803711,7.683000087738037 12.317000389099121,29.180999755859375 12.317000389099121,29.180999755859375 C12.317000389099121,29.180999755859375 68.06099700927734,-34.76599884033203 68.06099700927734,-34.76599884033203 C72.19999694824219,-39.37900161743164 77.26799774169922,-39.34400177001953 78.95800018310547,-33.9900016784668z M103.572998046875,47.13399887084961 C103.42400360107422,51.39400100708008 100.68499755859375,55.25699996948242 96.48500061035156,56.564998626708984 C96.48500061035156,56.564998626708984 -39.904998779296875,99.01300048828125 -39.904998779296875,99.01300048828125 C-44.125,100.3280029296875 -48.5880012512207,98.66699981689453 -51.11800003051758,95.21700286865234 C-51.11800003051758,95.21700286865234 5.468999862670898,25.01099967956543 5.468999862670898,25.01099967956543 C5.468999862670898,25.01099967956543 8.102999687194824,21.832000732421875 10.819999694824219,21.020000457763672 C13.536999702453613,20.20800018310547 17.107999801635742,21.540000915527344 17.107999801635742,21.540000915527344 C17.107999801635742,21.540000915527344 103.572998046875,47.13399887084961 103.572998046875,47.13399887084961z M103.572998046875,47.13399887084961 C103.42400360107422,51.39400100708008 100.68499755859375,55.25699996948242 96.48500061035156,56.564998626708984 C96.48500061035156,56.564998626708984 -39.904998779296875,99.01300048828125 -39.904998779296875,99.01300048828125 C-44.125,100.3280029296875 -48.5880012512207,98.66699981689453 -51.11800003051758,95.21700286865234 C-51.11800003051758,95.21700286865234 5.468999862670898,25.01099967956543 5.468999862670898,25.01099967956543 C5.468999862670898,25.01099967956543 8.102999687194824,21.832000732421875 10.819999694824219,21.020000457763672 C13.536999702453613,20.20800018310547 17.107999801635742,21.540000915527344 17.107999801635742,21.540000915527344 C17.107999801635742,21.540000915527344 103.572998046875,47.13399887084961 103.572998046875,47.13399887084961z M103.625,47.301998138427734 C103.44499969482422,51.4640007019043 100.68499755859375,55.25699996948242 96.48500061035156,56.564998626708984 C96.48500061035156,56.564998626708984 -39.904998779296875,99.01399993896484 -39.904998779296875,99.01399993896484 C-44.125,100.3290023803711 -48.564998626708984,98.73899841308594 -51.064998626708984,95.38700103759766 C-51.064998626708984,95.38700103759766 5.9019999504089355,26.402000427246094 5.9019999504089355,26.402000427246094 C5.9019999504089355,26.402000427246094 8.553000450134277,23.277999877929688 11.270000457763672,22.46500015258789 C13.987000465393066,21.652000427246094 17.541000366210938,22.927000045776367 17.541000366210938,22.927000045776367 C17.541000366210938,22.927000045776367 103.625,47.301998138427734 103.625,47.301998138427734z M103.625,47.301998138427734 C103.44499969482422,51.4640007019043 100.68499755859375,55.25699996948242 96.48500061035156,56.564998626708984 C96.48500061035156,56.564998626708984 -39.904998779296875,99.01399993896484 -39.904998779296875,99.01399993896484 C-44.125,100.3290023803711 -48.564998626708984,98.73899841308594 -51.064998626708984,95.38700103759766 C-51.064998626708984,95.38700103759766 5.9019999504089355,26.402000427246094 5.9019999504089355,26.402000427246094 C5.9019999504089355,26.402000427246094 8.553000450134277,23.277999877929688 11.270000457763672,22.46500015258789 C13.987000465393066,21.652000427246094 17.541000366210938,22.927000045776367 17.541000366210938,22.927000045776367 C17.541000366210938,22.927000045776367 103.625,47.301998138427734 103.625,47.301998138427734z M-73.9260025024414,5.758999824523926 C-73.9271011352539,5.761000156402588 -73.93099975585938,5.769000053405762 -73.93399810791016,5.77400016784668 C-73.93399810791016,5.77400016784668 -73.93399810791016,5.7769999504089355 -73.93299865722656,5.7779998779296875 C-73.93199920654297,5.78000020980835 -73.93209838867188,5.781000137329102 -73.93199920654297,5.781000137329102 C-73.93199920654297,5.781000137329102 -73.90799713134766,5.7729997634887695 -73.90799713134766,5.7729997634887695 C-73.90789794921875,5.7729997634887695 -73.90699768066406,5.7729997634887695 -73.90799713134766,5.769999980926514 C-73.90799713134766,5.769000053405762 -73.90899658203125,5.767000198364258 -73.90899658203125,5.767000198364258 C-73.91400146484375,5.763999938964844 -73.9229965209961,5.758999824523926 -73.92500305175781,5.758999824523926 C-73.92500305175781,5.758999824523926 -73.9260025024414,5.758999824523926 -73.9260025024414,5.758999824523926z M-73.9260025024414,5.758999824523926 C-73.9271011352539,5.761000156402588 -73.93099975585938,5.769000053405762 -73.93399810791016,5.77400016784668 C-73.93399810791016,5.77400016784668 -73.93399810791016,5.7769999504089355 -73.93299865722656,5.7779998779296875 C-73.93199920654297,5.78000020980835 -73.93209838867188,5.781000137329102 -73.93199920654297,5.781000137329102 C-73.93199920654297,5.781000137329102 -73.90799713134766,5.7729997634887695 -73.90799713134766,5.7729997634887695 C-73.90789794921875,5.7729997634887695 -73.90699768066406,5.7729997634887695 -73.90799713134766,5.769999980926514 C-73.90799713134766,5.769000053405762 -73.90899658203125,5.767000198364258 -73.90899658203125,5.767000198364258 C-73.91400146484375,5.763999938964844 -73.9229965209961,5.758999824523926 -73.92500305175781,5.758999824523926 C-73.92500305175781,5.758999824523926 -73.9260025024414,5.758999824523926 -73.9260025024414,5.758999824523926z"></path><path fill="rgb(32,32,32)" fill-opacity="0.3" d=" M103.572998046875,47.13399887084961 C103.42400360107422,51.39400100708008 100.68499755859375,55.25699996948242 96.48500061035156,56.564998626708984 C96.48500061035156,56.564998626708984 -39.904998779296875,99.01300048828125 -39.904998779296875,99.01300048828125 C-44.125,100.3280029296875 -48.5880012512207,98.66699981689453 -51.11800003051758,95.21700286865234 C-51.11800003051758,95.21700286865234 5.468999862670898,25.01099967956543 5.468999862670898,25.01099967956543 C5.468999862670898,25.01099967956543 8.102999687194824,21.832000732421875 10.819999694824219,21.020000457763672 C13.536999702453613,20.20800018310547 17.107999801635742,21.540000915527344 17.107999801635742,21.540000915527344 C17.107999801635742,21.540000915527344 103.572998046875,47.13399887084961 103.572998046875,47.13399887084961z M103.572998046875,47.13399887084961 C103.42400360107422,51.39400100708008 100.68499755859375,55.25699996948242 96.48500061035156,56.564998626708984 C96.48500061035156,56.564998626708984 -39.904998779296875,99.01300048828125 -39.904998779296875,99.01300048828125 C-44.125,100.3280029296875 -48.5880012512207,98.66699981689453 -51.11800003051758,95.21700286865234 C-51.11800003051758,95.21700286865234 5.468999862670898,25.01099967956543 5.468999862670898,25.01099967956543 C5.468999862670898,25.01099967956543 8.102999687194824,21.832000732421875 10.819999694824219,21.020000457763672 C13.536999702453613,20.20800018310547 17.107999801635742,21.540000915527344 17.107999801635742,21.540000915527344 C17.107999801635742,21.540000915527344 103.572998046875,47.13399887084961 103.572998046875,47.13399887084961z M103.625,47.301998138427734 C103.44499969482422,51.4640007019043 100.68499755859375,55.25699996948242 96.48500061035156,56.564998626708984 C96.48500061035156,56.564998626708984 -39.904998779296875,99.01399993896484 -39.904998779296875,99.01399993896484 C-44.125,100.3290023803711 -48.564998626708984,98.73899841308594 -51.064998626708984,95.38700103759766 C-51.064998626708984,95.38700103759766 5.9019999504089355,26.402000427246094 5.9019999504089355,26.402000427246094 C5.9019999504089355,26.402000427246094 8.553000450134277,23.277999877929688 11.270000457763672,22.46500015258789 C13.987000465393066,21.652000427246094 17.541000366210938,22.927000045776367 17.541000366210938,22.927000045776367 C17.541000366210938,22.927000045776367 103.625,47.301998138427734 103.625,47.301998138427734z M103.625,47.301998138427734 C103.44499969482422,51.4640007019043 100.68499755859375,55.25699996948242 96.48500061035156,56.564998626708984 C96.48500061035156,56.564998626708984 -39.904998779296875,99.01399993896484 -39.904998779296875,99.01399993896484 C-44.125,100.3290023803711 -48.564998626708984,98.73899841308594 -51.064998626708984,95.38700103759766 C-51.064998626708984,95.38700103759766 5.9019999504089355,26.402000427246094 5.9019999504089355,26.402000427246094 C5.9019999504089355,26.402000427246094 8.553000450134277,23.277999877929688 11.270000457763672,22.46500015258789 C13.987000465393066,21.652000427246094 17.541000366210938,22.927000045776367 17.541000366210938,22.927000045776367 C17.541000366210938,22.927000045776367 103.625,47.301998138427734 103.625,47.301998138427734z M-73.9260025024414,5.758999824523926 C-73.9271011352539,5.761000156402588 -73.93099975585938,5.769000053405762 -73.93399810791016,5.77400016784668 C-73.93399810791016,5.77400016784668 -73.93399810791016,5.7769999504089355 -73.93299865722656,5.7779998779296875 C-73.93199920654297,5.78000020980835 -73.93209838867188,5.781000137329102 -73.93199920654297,5.781000137329102 C-73.93199920654297,5.781000137329102 -73.90799713134766,5.7729997634887695 -73.90799713134766,5.7729997634887695 C-73.90789794921875,5.7729997634887695 -73.90699768066406,5.7729997634887695 -73.90799713134766,5.769999980926514 C-73.90799713134766,5.769000053405762 -73.90899658203125,5.767000198364258 -73.90899658203125,5.767000198364258 C-73.91400146484375,5.763999938964844 -73.9229965209961,5.758999824523926 -73.92500305175781,5.758999824523926 C-73.92500305175781,5.758999824523926 -73.9260025024414,5.758999824523926 -73.9260025024414,5.758999824523926z M-73.9260025024414,5.758999824523926 C-73.9271011352539,5.761000156402588 -73.93099975585938,5.769000053405762 -73.93399810791016,5.77400016784668 C-73.93399810791016,5.77400016784668 -73.93399810791016,5.7769999504089355 -73.93299865722656,5.7779998779296875 C-73.93199920654297,5.78000020980835 -73.93209838867188,5.781000137329102 -73.93199920654297,5.781000137329102 C-73.93199920654297,5.781000137329102 -73.90799713134766,5.7729997634887695 -73.90799713134766,5.7729997634887695 C-73.90789794921875,5.7729997634887695 -73.90699768066406,5.7729997634887695 -73.90799713134766,5.769999980926514 C-73.90799713134766,5.769000053405762 -73.90899658203125,5.767000198364258 -73.90899658203125,5.767000198364258 C-73.91400146484375,5.763999938964844 -73.9229965209961,5.758999824523926 -73.92500305175781,5.758999824523926 C-73.92500305175781,5.758999824523926 -73.9260025024414,5.758999824523926 -73.9260025024414,5.758999824523926z"></path><path fill="rgb(89,151,238)" fill-opacity="1" d=" M103.625,47.301998138427734 C103.44499969482422,51.4640007019043 100.68499755859375,55.25699996948242 96.48500061035156,56.564998626708984 C96.48500061035156,56.564998626708984 -39.904998779296875,99.01399993896484 -39.904998779296875,99.01399993896484 C-44.125,100.3290023803711 -48.564998626708984,98.73899841308594 -51.064998626708984,95.38700103759766 C-51.064998626708984,95.38700103759766 5.9019999504089355,26.402000427246094 5.9019999504089355,26.402000427246094 C5.9019999504089355,26.402000427246094 8.553000450134277,23.277999877929688 11.270000457763672,22.46500015258789 C13.987000465393066,21.652000427246094 17.541000366210938,22.927000045776367 17.541000366210938,22.927000045776367 C17.541000366210938,22.927000045776367 103.625,47.301998138427734 103.625,47.301998138427734z M103.625,47.301998138427734 C103.44499969482422,51.4640007019043 100.68499755859375,55.25699996948242 96.48500061035156,56.564998626708984 C96.48500061035156,56.564998626708984 -39.904998779296875,99.01399993896484 -39.904998779296875,99.01399993896484 C-44.125,100.3290023803711 -48.564998626708984,98.73899841308594 -51.064998626708984,95.38700103759766 C-51.064998626708984,95.38700103759766 5.9019999504089355,26.402000427246094 5.9019999504089355,26.402000427246094 C5.9019999504089355,26.402000427246094 8.553000450134277,23.277999877929688 11.270000457763672,22.46500015258789 C13.987000465393066,21.652000427246094 17.541000366210938,22.927000045776367 17.541000366210938,22.927000045776367 C17.541000366210938,22.927000045776367 103.625,47.301998138427734 103.625,47.301998138427734z M-73.9260025024414,5.758999824523926 C-73.9271011352539,5.761000156402588 -73.93099975585938,5.769000053405762 -73.93399810791016,5.77400016784668 C-73.93399810791016,5.77400016784668 -73.93399810791016,5.7769999504089355 -73.93299865722656,5.7779998779296875 C-73.93199920654297,5.78000020980835 -73.93209838867188,5.781000137329102 -73.93199920654297,5.781000137329102 C-73.93199920654297,5.781000137329102 -73.90799713134766,5.7729997634887695 -73.90799713134766,5.7729997634887695 C-73.90789794921875,5.7729997634887695 -73.90699768066406,5.7729997634887695 -73.90799713134766,5.769999980926514 C-73.90799713134766,5.769000053405762 -73.90899658203125,5.767000198364258 -73.90899658203125,5.767000198364258 C-73.91400146484375,5.763999938964844 -73.9229965209961,5.758999824523926 -73.92500305175781,5.758999824523926 C-73.92500305175781,5.758999824523926 -73.9260025024414,5.758999824523926 -73.9260025024414,5.758999824523926z M-73.9260025024414,5.758999824523926 C-73.9271011352539,5.761000156402588 -73.93099975585938,5.769000053405762 -73.93399810791016,5.77400016784668 C-73.93399810791016,5.77400016784668 -73.93399810791016,5.7769999504089355 -73.93299865722656,5.7779998779296875 C-73.93199920654297,5.78000020980835 -73.93209838867188,5.781000137329102 -73.93199920654297,5.781000137329102 C-73.93199920654297,5.781000137329102 -73.90799713134766,5.7729997634887695 -73.90799713134766,5.7729997634887695 C-73.90789794921875,5.7729997634887695 -73.90699768066406,5.7729997634887695 -73.90799713134766,5.769999980926514 C-73.90799713134766,5.769000053405762 -73.90899658203125,5.767000198364258 -73.90899658203125,5.767000198364258 C-73.91400146484375,5.763999938964844 -73.9229965209961,5.758999824523926 -73.92500305175781,5.758999824523926 C-73.92500305175781,5.758999824523926 -73.9260025024414,5.758999824523926 -73.9260025024414,5.758999824523926z"></path><path fill="rgb(102,162,246)" fill-opacity="0" d=" M-73.9260025024414,5.758999824523926 C-73.9271011352539,5.761000156402588 -73.93099975585938,5.769000053405762 -73.93399810791016,5.77400016784668 C-73.93399810791016,5.77400016784668 -73.93399810791016,5.7769999504089355 -73.93299865722656,5.7779998779296875 C-73.93199920654297,5.78000020980835 -73.93209838867188,5.781000137329102 -73.93199920654297,5.781000137329102 C-73.93199920654297,5.781000137329102 -73.90799713134766,5.7729997634887695 -73.90799713134766,5.7729997634887695 C-73.90789794921875,5.7729997634887695 -73.90699768066406,5.7729997634887695 -73.90799713134766,5.769999980926514 C-73.90799713134766,5.769000053405762 -73.90899658203125,5.767000198364258 -73.90899658203125,5.767000198364258 C-73.91400146484375,5.763999938964844 -73.9229965209961,5.758999824523926 -73.92500305175781,5.758999824523926 C-73.92500305175781,5.758999824523926 -73.9260025024414,5.758999824523926 -73.9260025024414,5.758999824523926z M-73.9260025024414,5.758999824523926 C-73.9271011352539,5.761000156402588 -73.93099975585938,5.769000053405762 -73.93399810791016,5.77400016784668 C-73.93399810791016,5.77400016784668 -73.93399810791016,5.7769999504089355 -73.93299865722656,5.7779998779296875 C-73.93199920654297,5.78000020980835 -73.93209838867188,5.781000137329102 -73.93199920654297,5.781000137329102 C-73.93199920654297,5.781000137329102 -73.90799713134766,5.7729997634887695 -73.90799713134766,5.7729997634887695 C-73.90789794921875,5.7729997634887695 -73.90699768066406,5.7729997634887695 -73.90799713134766,5.769999980926514 C-73.90799713134766,5.769000053405762 -73.90899658203125,5.767000198364258 -73.90899658203125,5.767000198364258 C-73.91400146484375,5.763999938964844 -73.9229965209961,5.758999824523926 -73.92500305175781,5.758999824523926 C-73.92500305175781,5.758999824523926 -73.9260025024414,5.758999824523926 -73.9260025024414,5.758999824523926z"></path></g></g><g transform="matrix(0.6328892111778259,0.21988920867443085,-0.21988920867443085,0.6328892111778259,-900.78955078125,-348.69122314453125)" opacity="1" style="display: block;"><g opacity="1" transform="matrix(1,0,0,1,2140.425048828125,652.02099609375)"><path fill="rgb(0,0,0)" fill-opacity="0.18" d=" M-4,-52.45249938964844 C31.019433975219727,-52.45249938964844 59.45249938964844,-24.019433975219727 59.45249938964844,11 C59.45249938964844,46.01943588256836 31.019433975219727,74.45249938964844 -4,74.45249938964844 C-39.01943588256836,74.45249938964844 -67.45249938964844,46.01943588256836 -67.45249938964844,11 C-67.45249938964844,-24.019433975219727 -39.01943588256836,-52.45249938964844 -4,-52.45249938964844z"></path></g><g opacity="1" transform="matrix(1,0,0,1,2140.425048828125,652.02099609375)"><path fill="rgb(225,234,245)" fill-opacity="1" d=" M0,-63.45249938964844 C35.01943588256836,-63.45249938964844 63.45249938964844,-35.01943588256836 63.45249938964844,0 C63.45249938964844,35.01943588256836 35.01943588256836,63.45249938964844 0,63.45249938964844 C-35.01943588256836,63.45249938964844 -63.45249938964844,35.01943588256836 -63.45249938964844,0 C-63.45249938964844,-35.01943588256836 -35.01943588256836,-63.45249938964844 0,-63.45249938964844z M17.93600082397461,34.33000183105469 C12.602999687194824,37.12900161743164 5.40500020980835,38.59600067138672 -1.3930000066757202,38.59600067138672 C-21.2549991607666,38.59600067138672 -35.51900100708008,25.93199920654297 -35.51900100708008,3.6700000762939453 C-35.51900100708008,-21.791000366210938 -17.6560001373291,-37.7869987487793 2.740000009536743,-37.7869987487793 C23.402000427246094,-37.7869987487793 34.597999572753906,-24.323999404907227 34.597999572753906,-6.99399995803833 C34.597999572753906,8.336000442504883 27.398000717163086,15.73900032043457 21.667999267578125,15.534000396728516 C17.93600082397461,15.401000022888184 17.003000259399414,11.802000045776367 18.336000442504883,3.937000036239624 C18.336000442504883,3.937000036239624 22.334999084472656,-20.724000930786133 22.334999084472656,-20.724000930786133 C19.00200080871582,-22.59000015258789 12.336999893188477,-24.05699920654297 6.4720001220703125,-24.05699920654297 C-12.723999977111816,-24.05699920654297 -24.722000122070312,-9.260000228881836 -24.722000122070312,7.002999782562256 C-24.722000122070312,17.93400001525879 -18.45599937438965,24.332000732421875 -9.791000366210938,24.332000732421875 C-2.7260000705718994,24.332000732421875 3.2720000743865967,20.867000579833984 7.40500020980835,14.067999839782715 C7.40500020980835,14.067999839782715 7.671000003814697,14.067999839782715 7.671000003814697,14.067999839782715 C8.338000297546387,21.132999420166016 12.869999885559082,24.332000732421875 19.13599967956543,24.332000732421875 C33.53200149536133,24.332000732421875 44.4630012512207,12.067999839782715 44.4630012512207,-7.394000053405762 C44.4630012512207,-29.788999557495117 27.66699981689453,-45.91899871826172 4.205999851226807,-45.91899871826172 C-25.92099952697754,-45.91899871826172 -45.650001525878906,-22.323999404907227 -45.650001525878906,4.869999885559082 C-45.650001525878906,30.99799919128418 -26.187000274658203,46.861000061035156 -4.059999942779541,46.861000061035156 C5.40500020980835,46.861000061035156 12.336999893188477,45.6609992980957 20.334999084472656,42.0620002746582 C20.334999084472656,42.0620002746582 17.93600082397461,34.33000183105469 17.93600082397461,34.33000183105469z M6.604000091552734,-0.32899999618530273 C5.4039998054504395,7.4029998779296875 0.20600000023841858,13.668000221252441 -4.72599983215332,13.668000221252441 C-9.12399959564209,13.668000221252441 -11.390999794006348,10.468999862670898 -11.390999794006348,5.4029998779296875 C-11.390999794006348,-4.861000061035156 -4.459000110626221,-13.526000022888184 4.339000225067139,-13.526000022888184 C6.071000099182129,-13.526000022888184 7.4039998054504395,-13.260000228881836 8.470000267028809,-12.993000030517578 C8.470000267028809,-12.993000030517578 6.604000091552734,-0.32899999618530273 6.604000091552734,-0.32899999618530273z"></path><path fill="rgb(58,130,243)" fill-opacity="1" d=" M17.93600082397461,34.33000183105469 C12.602999687194824,37.12900161743164 5.40500020980835,38.59600067138672 -1.3930000066757202,38.59600067138672 C-21.2549991607666,38.59600067138672 -35.51900100708008,25.93199920654297 -35.51900100708008,3.6700000762939453 C-35.51900100708008,-21.791000366210938 -17.6560001373291,-37.7869987487793 2.740000009536743,-37.7869987487793 C23.402000427246094,-37.7869987487793 34.597999572753906,-24.323999404907227 34.597999572753906,-6.99399995803833 C34.597999572753906,8.336000442504883 27.398000717163086,15.73900032043457 21.667999267578125,15.534000396728516 C17.93600082397461,15.401000022888184 17.003000259399414,11.802000045776367 18.336000442504883,3.937000036239624 C18.336000442504883,3.937000036239624 22.334999084472656,-20.724000930786133 22.334999084472656,-20.724000930786133 C19.00200080871582,-22.59000015258789 12.336999893188477,-24.05699920654297 6.4720001220703125,-24.05699920654297 C-12.723999977111816,-24.05699920654297 -24.722000122070312,-9.260000228881836 -24.722000122070312,7.002999782562256 C-24.722000122070312,17.93400001525879 -18.45599937438965,24.332000732421875 -9.791000366210938,24.332000732421875 C-2.7260000705718994,24.332000732421875 3.2720000743865967,20.867000579833984 7.40500020980835,14.067999839782715 C7.40500020980835,14.067999839782715 7.671000003814697,14.067999839782715 7.671000003814697,14.067999839782715 C8.338000297546387,21.132999420166016 12.869999885559082,24.332000732421875 19.13599967956543,24.332000732421875 C33.53200149536133,24.332000732421875 44.4630012512207,12.067999839782715 44.4630012512207,-7.394000053405762 C44.4630012512207,-29.788999557495117 27.66699981689453,-45.91899871826172 4.205999851226807,-45.91899871826172 C-25.92099952697754,-45.91899871826172 -45.650001525878906,-22.323999404907227 -45.650001525878906,4.869999885559082 C-45.650001525878906,30.99799919128418 -26.187000274658203,46.861000061035156 -4.059999942779541,46.861000061035156 C5.40500020980835,46.861000061035156 12.336999893188477,45.6609992980957 20.334999084472656,42.0620002746582 C20.334999084472656,42.0620002746582 17.93600082397461,34.33000183105469 17.93600082397461,34.33000183105469z M6.604000091552734,-0.32899999618530273 C5.4039998054504395,7.4029998779296875 0.20600000023841858,13.668000221252441 -4.72599983215332,13.668000221252441 C-9.12399959564209,13.668000221252441 -11.390999794006348,10.468999862670898 -11.390999794006348,5.4029998779296875 C-11.390999794006348,-4.861000061035156 -4.459000110626221,-13.526000022888184 4.339000225067139,-13.526000022888184 C6.071000099182129,-13.526000022888184 7.4039998054504395,-13.260000228881836 8.470000267028809,-12.993000030517578 C8.470000267028809,-12.993000030517578 6.604000091552734,-0.32899999618530273 6.604000091552734,-0.32899999618530273z"></path></g></g><g transform="matrix(0.8199999928474426,0,0,0.8199999928474426,485.45404052734375,889.9051513671875)" opacity="1" style="display: block;"><g opacity="1" transform="matrix(1,0,0,1,200.25,-287)"><path fill="rgb(0,0,0)" fill-opacity="0.17" d=" M127.75,-39.5 C127.75,-39.5 127.75,51.5 127.75,51.5 C127.75,57.01900100708008 123.26899719238281,61.5 117.75,61.5 C117.75,61.5 -129.75,61.5 -129.75,61.5 C-135.2689971923828,61.5 -139.75,57.01900100708008 -139.75,51.5 C-139.75,51.5 -139.75,-39.5 -139.75,-39.5 C-139.75,-45.01900100708008 -135.2689971923828,-49.5 -129.75,-49.5 C-129.75,-49.5 117.75,-49.5 117.75,-49.5 C123.26899719238281,-49.5 127.75,-45.01900100708008 127.75,-39.5z M127.75,-39.5 C127.75,-39.5 127.75,51.5 127.75,51.5 C127.75,57.01900100708008 123.26899719238281,61.5 117.75,61.5 C117.75,61.5 -129.75,61.5 -129.75,61.5 C-135.2689971923828,61.5 -139.75,57.01900100708008 -139.75,51.5 C-139.75,51.5 -139.75,-39.5 -139.75,-39.5 C-139.75,-45.01900100708008 -135.2689971923828,-49.5 -129.75,-49.5 C-129.75,-49.5 117.75,-49.5 117.75,-49.5 C123.26899719238281,-49.5 127.75,-45.01900100708008 127.75,-39.5z M133.75,-45.5 C133.75,-45.5 133.75,45.5 133.75,45.5 C133.75,51.01900100708008 129.2689971923828,55.5 123.75,55.5 C123.75,55.5 -123.75,55.5 -123.75,55.5 C-129.2689971923828,55.5 -133.75,51.01900100708008 -133.75,45.5 C-133.75,45.5 -133.75,-45.5 -133.75,-45.5 C-133.75,-51.01900100708008 -129.2689971923828,-55.5 -123.75,-55.5 C-123.75,-55.5 123.75,-55.5 123.75,-55.5 C129.2689971923828,-55.5 133.75,-51.01900100708008 133.75,-45.5z M133.75,-45.5 C133.75,-45.5 133.75,45.5 133.75,45.5 C133.75,51.01900100708008 129.2689971923828,55.5 123.75,55.5 C123.75,55.5 -123.75,55.5 -123.75,55.5 C-129.2689971923828,55.5 -133.75,51.01900100708008 -133.75,45.5 C-133.75,45.5 -133.75,-45.5 -133.75,-45.5 C-133.75,-51.01900100708008 -129.2689971923828,-55.5 -123.75,-55.5 C-123.75,-55.5 123.75,-55.5 123.75,-55.5 C129.2689971923828,-55.5 133.75,-51.01900100708008 133.75,-45.5z M-74,-46.75 C-48.198673248291016,-46.75 -27.25,-25.80132484436035 -27.25,0 C-27.25,25.80132484436035 -48.198673248291016,46.75 -74,46.75 C-99.80132293701172,46.75 -120.75,25.80132484436035 -120.75,0 C-120.75,-25.80132484436035 -99.80132293701172,-46.75 -74,-46.75z M-74,-46.75 C-48.198673248291016,-46.75 -27.25,-25.80132484436035 -27.25,0 C-27.25,25.80132484436035 -48.198673248291016,46.75 -74,46.75 C-99.80132293701172,46.75 -120.75,25.80132484436035 -120.75,0 C-120.75,-25.80132484436035 -99.80132293701172,-46.75 -74,-46.75z M-74,-32 C-63.36899948120117,-32 -54.75,-23.381000518798828 -54.75,-12.75 C-54.75,-3.9839999675750732 -60.60900115966797,7.322999954223633 -68.625,11.020999908447266 C-69.45600128173828,11.404999732971191 -45,13.625 -43.935001373291016,27.259000778198242 C-48.75,33.875 -60.625,40.25 -74,40.25 C-88.3759994506836,40.25 -100.375,32.125 -105.00199890136719,26.947999954223633 C-104.375,13.25 -79.21700286865234,11.142999649047852 -80.26799774169922,10.572999954223633 C-87.8219985961914,6.478000164031982 -93.25,-4.313000202178955 -93.25,-12.75 C-93.25,-23.381000518798828 -84.63099670410156,-32 -74,-32z M-74,-32 C-63.36899948120117,-32 -54.75,-23.381000518798828 -54.75,-12.75 C-54.75,-3.9839999675750732 -60.60900115966797,7.322999954223633 -68.625,11.020999908447266 C-69.45600128173828,11.404999732971191 -45,13.625 -43.935001373291016,27.259000778198242 C-48.75,33.875 -60.625,40.25 -74,40.25 C-88.3759994506836,40.25 -100.375,32.125 -105.00199890136719,26.947999954223633 C-104.375,13.25 -79.21700286865234,11.142999649047852 -80.26799774169922,10.572999954223633 C-87.8219985961914,6.478000164031982 -93.25,-4.313000202178955 -93.25,-12.75 C-93.25,-23.381000518798828 -84.63099670410156,-32 -74,-32z"></path><path fill="rgb(255,255,255)" fill-opacity="1" d=" M133.75,-45.5 C133.75,-45.5 133.75,45.5 133.75,45.5 C133.75,51.01900100708008 129.2689971923828,55.5 123.75,55.5 C123.75,55.5 -123.75,55.5 -123.75,55.5 C-129.2689971923828,55.5 -133.75,51.01900100708008 -133.75,45.5 C-133.75,45.5 -133.75,-45.5 -133.75,-45.5 C-133.75,-51.01900100708008 -129.2689971923828,-55.5 -123.75,-55.5 C-123.75,-55.5 123.75,-55.5 123.75,-55.5 C129.2689971923828,-55.5 133.75,-51.01900100708008 133.75,-45.5z M133.75,-45.5 C133.75,-45.5 133.75,45.5 133.75,45.5 C133.75,51.01900100708008 129.2689971923828,55.5 123.75,55.5 C123.75,55.5 -123.75,55.5 -123.75,55.5 C-129.2689971923828,55.5 -133.75,51.01900100708008 -133.75,45.5 C-133.75,45.5 -133.75,-45.5 -133.75,-45.5 C-133.75,-51.01900100708008 -129.2689971923828,-55.5 -123.75,-55.5 C-123.75,-55.5 123.75,-55.5 123.75,-55.5 C129.2689971923828,-55.5 133.75,-51.01900100708008 133.75,-45.5z M-74,-46.75 C-48.198673248291016,-46.75 -27.25,-25.80132484436035 -27.25,0 C-27.25,25.80132484436035 -48.198673248291016,46.75 -74,46.75 C-99.80132293701172,46.75 -120.75,25.80132484436035 -120.75,0 C-120.75,-25.80132484436035 -99.80132293701172,-46.75 -74,-46.75z M-74,-46.75 C-48.198673248291016,-46.75 -27.25,-25.80132484436035 -27.25,0 C-27.25,25.80132484436035 -48.198673248291016,46.75 -74,46.75 C-99.80132293701172,46.75 -120.75,25.80132484436035 -120.75,0 C-120.75,-25.80132484436035 -99.80132293701172,-46.75 -74,-46.75z M-74,-32 C-63.36899948120117,-32 -54.75,-23.381000518798828 -54.75,-12.75 C-54.75,-3.9839999675750732 -60.60900115966797,7.322999954223633 -68.625,11.020999908447266 C-69.45600128173828,11.404999732971191 -45,13.625 -43.935001373291016,27.259000778198242 C-48.75,33.875 -60.625,40.25 -74,40.25 C-88.3759994506836,40.25 -100.375,32.125 -105.00199890136719,26.947999954223633 C-104.375,13.25 -79.21700286865234,11.142999649047852 -80.26799774169922,10.572999954223633 C-87.8219985961914,6.478000164031982 -93.25,-4.313000202178955 -93.25,-12.75 C-93.25,-23.381000518798828 -84.63099670410156,-32 -74,-32z M-74,-32 C-63.36899948120117,-32 -54.75,-23.381000518798828 -54.75,-12.75 C-54.75,-3.9839999675750732 -60.60900115966797,7.322999954223633 -68.625,11.020999908447266 C-69.45600128173828,11.404999732971191 -45,13.625 -43.935001373291016,27.259000778198242 C-48.75,33.875 -60.625,40.25 -74,40.25 C-88.3759994506836,40.25 -100.375,32.125 -105.00199890136719,26.947999954223633 C-104.375,13.25 -79.21700286865234,11.142999649047852 -80.26799774169922,10.572999954223633 C-87.8219985961914,6.478000164031982 -93.25,-4.313000202178955 -93.25,-12.75 C-93.25,-23.381000518798828 -84.63099670410156,-32 -74,-32z"></path><path fill="rgb(223,229,243)" fill-opacity="1" d=" M-74,-46.75 C-48.198673248291016,-46.75 -27.25,-25.80132484436035 -27.25,0 C-27.25,25.80132484436035 -48.198673248291016,46.75 -74,46.75 C-99.80132293701172,46.75 -120.75,25.80132484436035 -120.75,0 C-120.75,-25.80132484436035 -99.80132293701172,-46.75 -74,-46.75z M-74,-46.75 C-48.198673248291016,-46.75 -27.25,-25.80132484436035 -27.25,0 C-27.25,25.80132484436035 -48.198673248291016,46.75 -74,46.75 C-99.80132293701172,46.75 -120.75,25.80132484436035 -120.75,0 C-120.75,-25.80132484436035 -99.80132293701172,-46.75 -74,-46.75z M-74,-32 C-63.36899948120117,-32 -54.75,-23.381000518798828 -54.75,-12.75 C-54.75,-3.9839999675750732 -60.60900115966797,7.322999954223633 -68.625,11.020999908447266 C-69.45600128173828,11.404999732971191 -45,13.625 -43.935001373291016,27.259000778198242 C-48.75,33.875 -60.625,40.25 -74,40.25 C-88.3759994506836,40.25 -100.375,32.125 -105.00199890136719,26.947999954223633 C-104.375,13.25 -79.21700286865234,11.142999649047852 -80.26799774169922,10.572999954223633 C-87.8219985961914,6.478000164031982 -93.25,-4.313000202178955 -93.25,-12.75 C-93.25,-23.381000518798828 -84.63099670410156,-32 -74,-32z M-74,-32 C-63.36899948120117,-32 -54.75,-23.381000518798828 -54.75,-12.75 C-54.75,-3.9839999675750732 -60.60900115966797,7.322999954223633 -68.625,11.020999908447266 C-69.45600128173828,11.404999732971191 -45,13.625 -43.935001373291016,27.259000778198242 C-48.75,33.875 -60.625,40.25 -74,40.25 C-88.3759994506836,40.25 -100.375,32.125 -105.00199890136719,26.947999954223633 C-104.375,13.25 -79.21700286865234,11.142999649047852 -80.26799774169922,10.572999954223633 C-87.8219985961914,6.478000164031982 -93.25,-4.313000202178955 -93.25,-12.75 C-93.25,-23.381000518798828 -84.63099670410156,-32 -74,-32z"></path><path fill="rgb(255,255,255)" fill-opacity="1" d=" M-74,-32 C-63.36899948120117,-32 -54.75,-23.381000518798828 -54.75,-12.75 C-54.75,-3.9839999675750732 -60.60900115966797,7.322999954223633 -68.625,11.020999908447266 C-69.45600128173828,11.404999732971191 -45,13.625 -43.935001373291016,27.259000778198242 C-48.75,33.875 -60.625,40.25 -74,40.25 C-88.3759994506836,40.25 -100.375,32.125 -105.00199890136719,26.947999954223633 C-104.375,13.25 -79.21700286865234,11.142999649047852 -80.26799774169922,10.572999954223633 C-87.8219985961914,6.478000164031982 -93.25,-4.313000202178955 -93.25,-12.75 C-93.25,-23.381000518798828 -84.63099670410156,-32 -74,-32z M-74,-32 C-63.36899948120117,-32 -54.75,-23.381000518798828 -54.75,-12.75 C-54.75,-3.9839999675750732 -60.60900115966797,7.322999954223633 -68.625,11.020999908447266 C-69.45600128173828,11.404999732971191 -45,13.625 -43.935001373291016,27.259000778198242 C-48.75,33.875 -60.625,40.25 -74,40.25 C-88.3759994506836,40.25 -100.375,32.125 -105.00199890136719,26.947999954223633 C-104.375,13.25 -79.21700286865234,11.142999649047852 -80.26799774169922,10.572999954223633 C-87.8219985961914,6.478000164031982 -93.25,-4.313000202178955 -93.25,-12.75 C-93.25,-23.381000518798828 -84.63099670410156,-32 -74,-32z"></path></g><g opacity="1" transform="matrix(1,0,0,1,0,0)"><path stroke-linecap="round" stroke-linejoin="round" fill-opacity="0" stroke="rgb(222,228,243)" stroke-opacity="1" stroke-width="10" d=" M192.5,-298 C192.5,-298 313,-298 313,-298 M192.5,-298 C192.5,-298 313,-298 313,-298 M331.99,125.08 C331.99,125.08 357.49,242.85 357.49,242.85 M331.99,125.08 C331.99,125.08 357.49,242.85 357.49,242.85 M331.99,125.08 C331.99,125.08 357.49,242.85 357.49,242.85 M331.99,125.08 C331.99,125.08 357.49,242.85 357.49,242.85 M331.99,125.08 C331.99,125.08 357.49,242.85 357.49,242.85 M331.99,125.08 C331.99,125.08 357.49,242.85 357.49,242.85 M192.5,-256 C192.5,-256 313,-256 313,-256 M331.99,167.08 C331.99,167.08 357.49,284.85 357.49,284.85 M331.99,167.08 C331.99,167.08 357.49,284.85 357.49,284.85 M331.99,167.08 C331.99,167.08 357.49,284.85 357.49,284.85 M192.5,-277 C192.5,-277 313,-277 313,-277 M331.99,146.08 C331.99,146.08 357.49,263.85 357.49,263.85 M331.99,146.08 C331.99,146.08 357.49,263.85 357.49,263.85 M331.99,146.08 C331.99,146.08 357.49,263.85 357.49,263.85 M192.5,-298 C192.5,-298 313,-298 313,-298 M331.99,125.08 C331.99,125.08 357.49,242.85 357.49,242.85 M331.99,125.08 C331.99,125.08 357.49,242.85 357.49,242.85 M331.99,125.08 C331.99,125.08 357.49,242.85 357.49,242.85"></path><g opacity="1" transform="matrix(1,0,0,1,0,42)"><g opacity="1" transform="matrix(0.21161995828151703,0.9773520231246948,-0.9773520231246948,0.21161995828151703,0,0)"></g><g opacity="1" transform="matrix(0.21161995828151703,0.9773520231246948,-0.9773520231246948,0.21161995828151703,0,0)"></g><g opacity="1" transform="matrix(0.21161995828151703,0.9773520231246948,-0.9773520231246948,0.21161995828151703,0,0)"></g></g><g opacity="1" transform="matrix(1,0,0,1,0,21)"><g opacity="1" transform="matrix(0.21161995828151703,0.9773520231246948,-0.9773520231246948,0.21161995828151703,0,0)"></g><g opacity="1" transform="matrix(0.21161995828151703,0.9773520231246948,-0.9773520231246948,0.21161995828151703,0,0)"></g><g opacity="1" transform="matrix(0.21161995828151703,0.9773520231246948,-0.9773520231246948,0.21161995828151703,0,0)"></g></g><g opacity="1" transform="matrix(1,0,0,1,0,0)"><g opacity="1" transform="matrix(0.21161995828151703,0.9773520231246948,-0.9773520231246948,0.21161995828151703,0,0)"></g><g opacity="1" transform="matrix(0.21161995828151703,0.9773520231246948,-0.9773520231246948,0.21161995828151703,0,0)"></g><g opacity="1" transform="matrix(0.21161995828151703,0.9773520231246948,-0.9773520231246948,0.21161995828151703,0,0)"></g></g></g><g opacity="1" transform="matrix(1,0,0,1,0,0)"><path stroke-linecap="round" stroke-linejoin="round" fill-opacity="0" stroke="rgb(60,130,241)" stroke-opacity="1" stroke-width="10" d=" M192.5,-319.5 C192.5,-319.5 250.5,-319.5 250.5,-319.5 M192.5,-319.5 C192.5,-319.5 250.5,-319.5 250.5,-319.5"></path></g></g><g mask="url(#__lottie_element_32_2)" style="display: block;"><g transform="matrix(0.5613787174224854,-0.3276490569114685,0.3276490569114685,0.5613787174224854,-363.33624267578125,400.1099853515625)" opacity="1"><g opacity="1" transform="matrix(1,0,0,1,790.9019775390625,773.677978515625)"><path fill="rgb(0,0,0)" fill-opacity="0.2" d=" M-0.46129751205444336,-16.142711639404297 C-0.46129751205444336,-16.142711639404297 -69.51126861572266,-9.94083023071289 -69.51126861572266,-9.94083023071289 C-69.51126861572266,-9.94083023071289 57.2230110168457,0.7572188377380371 57.2230110168457,0.7572188377380371 C57.2230110168457,0.7572188377380371 52.43196105957031,-4.617366313934326 52.43196105957031,-4.617366313934326 C52.43196105957031,-4.617366313934326 52.620269775390625,-24.833105087280273 52.620269775390625,-24.833105087280273 C52.620269775390625,-24.833105087280273 -0.46129751205444336,-16.142711639404297 -0.46129751205444336,-16.142711639404297z M-75.26689147949219,-7.96145486831665 C-75.26689147949219,-7.96145486831665 55.01628112792969,-22.276697158813477 55.01628112792969,-22.276697158813477 C55.01628112792969,-22.276697158813477 61.84939193725586,-44.834197998046875 61.84939193725586,-44.834197998046875 C61.84939193725586,-44.834197998046875 -75.26689147949219,-7.96145486831665 -75.26689147949219,-7.96145486831665z M59.49506759643555,-10.259407997131348 C59.49506759643555,-10.259407997131348 -75.26689147949219,-7.96145486831665 -75.26689147949219,-7.96145486831665 C-75.26689147949219,-7.96145486831665 110.45890045166016,44.90084457397461 110.45890045166016,44.90084457397461 C110.45890045166016,44.90084457397461 59.49506759643555,-10.259407997131348 59.49506759643555,-10.259407997131348z"></path></g><g opacity="1" transform="matrix(1,0,0,1,795.9019775390625,768.677978515625)"><path fill="rgb(166,189,219)" fill-opacity="1" d=" M-0.46129751205444336,-16.142711639404297 C-0.46129751205444336,-16.142711639404297 -69.51126861572266,-9.94083023071289 -69.51126861572266,-9.94083023071289 C-69.51126861572266,-9.94083023071289 57.2230110168457,0.7572188377380371 57.2230110168457,0.7572188377380371 C57.2230110168457,0.7572188377380371 52.43196105957031,-4.617366313934326 52.43196105957031,-4.617366313934326 C52.43196105957031,-4.617366313934326 52.620269775390625,-24.833105087280273 52.620269775390625,-24.833105087280273 C52.620269775390625,-24.833105087280273 -0.46129751205444336,-16.142711639404297 -0.46129751205444336,-16.142711639404297z M-75.26689147949219,-7.96145486831665 C-75.26689147949219,-7.96145486831665 55.01628112792969,-22.276697158813477 55.01628112792969,-22.276697158813477 C55.01628112792969,-22.276697158813477 61.84939193725586,-44.834197998046875 61.84939193725586,-44.834197998046875 C61.84939193725586,-44.834197998046875 -75.26689147949219,-7.96145486831665 -75.26689147949219,-7.96145486831665z M59.49506759643555,-10.259407997131348 C59.49506759643555,-10.259407997131348 -75.26689147949219,-7.96145486831665 -75.26689147949219,-7.96145486831665 C-75.26689147949219,-7.96145486831665 110.45890045166016,44.90084457397461 110.45890045166016,44.90084457397461 C110.45890045166016,44.90084457397461 59.49506759643555,-10.259407997131348 59.49506759643555,-10.259407997131348z"></path><path fill="rgb(211,223,237)" fill-opacity="1" d=" M-75.26689147949219,-7.96145486831665 C-75.26689147949219,-7.96145486831665 55.01628112792969,-22.276697158813477 55.01628112792969,-22.276697158813477 C55.01628112792969,-22.276697158813477 61.84939193725586,-44.834197998046875 61.84939193725586,-44.834197998046875 C61.84939193725586,-44.834197998046875 -75.26689147949219,-7.96145486831665 -75.26689147949219,-7.96145486831665z M59.49506759643555,-10.259407997131348 C59.49506759643555,-10.259407997131348 -75.26689147949219,-7.96145486831665 -75.26689147949219,-7.96145486831665 C-75.26689147949219,-7.96145486831665 110.45890045166016,44.90084457397461 110.45890045166016,44.90084457397461 C110.45890045166016,44.90084457397461 59.49506759643555,-10.259407997131348 59.49506759643555,-10.259407997131348z"></path></g></g></g></g></svg>