<svg width="18" height="18" viewBox="0 0 18 18" fill="none" xmlns="http://www.w3.org/2000/svg">
<path d="M8.46875 5.88561C7.80582 6.07754 7.40625 6.61616 7.40625 7.125C7.40625 7.63384 7.80582 8.17246 8.46875 8.36439V5.88561Z" fill="#96A1AF"/>
<path d="M9.53125 9.63561V12.1144C10.1942 11.9225 10.5937 11.3838 10.5937 10.875C10.5937 10.3662 10.1942 9.82754 9.53125 9.63561Z" fill="#96A1AF"/>
<path fill-rule="evenodd" clip-rule="evenodd" d="M16.0833 9C16.0833 13.1421 12.912 16.5 9 16.5C5.08798 16.5 1.91666 13.1421 1.91666 9C1.91666 4.85786 5.08798 1.5 9 1.5C12.912 1.5 16.0833 4.85786 16.0833 9ZM9 3.9375C9.2934 3.9375 9.53125 4.18934 9.53125 4.5V4.73755C10.6861 4.9565 11.6562 5.87521 11.6562 7.125C11.6562 7.43566 11.4184 7.6875 11.125 7.6875C10.8316 7.6875 10.5937 7.43566 10.5937 7.125C10.5937 6.61616 10.1942 6.07754 9.53125 5.88561V8.48755C10.6861 8.7065 11.6562 9.62521 11.6562 10.875C11.6562 12.1248 10.6861 13.0435 9.53125 13.2624V13.5C9.53125 13.8107 9.2934 14.0625 9 14.0625C8.7066 14.0625 8.46875 13.8107 8.46875 13.5V13.2624C7.31386 13.0435 6.34375 12.1248 6.34375 10.875C6.34375 10.5643 6.5816 10.3125 6.875 10.3125C7.1684 10.3125 7.40625 10.5643 7.40625 10.875C7.40625 11.3838 7.80582 11.9225 8.46875 12.1144V9.51245C7.31386 9.2935 6.34375 8.37479 6.34375 7.125C6.34375 5.87521 7.31386 4.9565 8.46875 4.73755V4.5C8.46875 4.18934 8.7066 3.9375 9 3.9375Z" fill="#96A1AF"/>
</svg>
