<svg width="18" height="18" viewBox="0 0 18 18" fill="none" xmlns="http://www.w3.org/2000/svg">
<path fill-rule="evenodd" clip-rule="evenodd" d="M1.93638 8.4375C2.20804 4.55809 5.26678 1.5 9.00009 1.5C8.41157 1.5 7.88756 1.77316 7.45649 2.19085C7.02758 2.60644 6.66513 3.18658 6.37196 3.87236C6.07707 4.56219 5.84801 5.36901 5.69297 6.24459C5.56869 6.94646 5.49306 7.68639 5.46785 8.4375H1.93638ZM1.93638 9.5625H5.46785C5.49306 10.3136 5.56869 11.0535 5.69297 11.7554C5.84801 12.631 6.07707 13.4378 6.37196 14.1276C6.66512 14.8134 7.02758 15.3936 7.45649 15.8092C7.88756 16.2268 8.41157 16.5 9.00009 16.5C5.26678 16.5 2.20804 13.4419 1.93638 9.5625Z" fill="#96A1AF"/>
<path d="M9.00009 2.54651C8.80529 2.54651 8.55364 2.63427 8.26102 2.91781C7.96623 3.20345 7.67112 3.65111 7.41039 4.26103C7.15139 4.8669 6.94108 5.5983 6.79635 6.41565C6.68238 7.05931 6.61167 7.74164 6.58686 8.4375H11.4133C11.3885 7.74164 11.3178 7.05932 11.2038 6.41565C11.0591 5.59831 10.8488 4.8669 10.5898 4.26103C10.3291 3.65111 10.034 3.20345 9.73917 2.91781C9.44654 2.63427 9.19489 2.54651 9.00009 2.54651Z" fill="#96A1AF"/>
<path d="M6.79635 11.5844C6.94108 12.4017 7.15139 13.1331 7.41039 13.739C7.67112 14.3489 7.96623 14.7966 8.26102 15.0822C8.55364 15.3657 8.80529 15.4535 9.00009 15.4535C9.19489 15.4535 9.44654 15.3657 9.73917 15.0822C10.034 14.7966 10.3291 14.3489 10.5898 13.739C10.8488 13.1331 11.0591 12.4017 11.2038 11.5844C11.3178 10.9407 11.3885 10.2584 11.4133 9.5625H6.58686C6.61167 10.2584 6.68238 10.9407 6.79635 11.5844Z" fill="#96A1AF"/>
<path d="M9.00009 1.5C9.58862 1.5 10.1126 1.77316 10.5437 2.19085C10.9726 2.60644 11.3351 3.18658 11.6282 3.87237C11.9231 4.56219 12.1522 5.36901 12.3072 6.24459C12.4315 6.94646 12.5071 7.68639 12.5323 8.4375H16.0638C15.7921 4.55809 12.7334 1.5 9.00009 1.5Z" fill="#96A1AF"/>
<path d="M12.3072 11.7554C12.1522 12.631 11.9231 13.4378 11.6282 14.1276C11.3351 14.8134 10.9726 15.3936 10.5437 15.8092C10.1126 16.2268 9.58862 16.5 9.00009 16.5C12.7334 16.5 15.7921 13.4419 16.0638 9.5625H12.5323C12.5071 10.3136 12.4315 11.0535 12.3072 11.7554Z" fill="#96A1AF"/>
</svg>
